<?xml version="1.0" encoding="UTF-8" standalone="no"?>
<!-- Created with Inkscape (http://www.inkscape.org/) -->

<svg
   xmlns:dc="http://purl.org/dc/elements/1.1/"
   xmlns:cc="http://creativecommons.org/ns#"
   xmlns:rdf="http://www.w3.org/1999/02/22-rdf-syntax-ns#"
   xmlns:svg="http://www.w3.org/2000/svg"
   xmlns="http://www.w3.org/2000/svg"
   xmlns:sodipodi="http://sodipodi.sourceforge.net/DTD/sodipodi-0.dtd"
   xmlns:inkscape="http://www.inkscape.org/namespaces/inkscape"
   id="svg3310"
   version="1.1"
   inkscape:version="0.48.4 r"
   width="708.66138"
   height="708.66138"
   xml:space="preserve"
   sodipodi:docname="hex_disk_packing.PDF"><metadata
     id="metadata3316"><rdf:RDF><cc:Work
         rdf:about=""><dc:format>image/svg+xml</dc:format><dc:type
           rdf:resource="http://purl.org/dc/dcmitype/StillImage" /><dc:title></dc:title></cc:Work></rdf:RDF></metadata><defs
     id="defs3314" /><sodipodi:namedview
     pagecolor="#ffffff"
     bordercolor="#666666"
     borderopacity="1"
     objecttolerance="10"
     gridtolerance="10"
     guidetolerance="10"
     inkscape:pageopacity="0"
     inkscape:pageshadow="2"
     inkscape:window-width="1366"
     inkscape:window-height="705"
     id="namedview3312"
     showgrid="false"
     units="mm"
     inkscape:zoom="0.44851463"
     inkscape:cx="232.66309"
     inkscape:cy="508.88348"
     inkscape:window-x="-8"
     inkscape:window-y="-8"
     inkscape:window-maximized="1"
     inkscape:current-layer="layer5" /><g
     id="g3318"
     inkscape:groupmode="layer"
     inkscape:label="hex_disk_packing"
     transform="matrix(1.25,0,0,-1.25,0,708.66135)"
     sodipodi:insensitive="true" /><g
     inkscape:groupmode="layer"
     id="layer4"
     inkscape:label="voronoi"
     style="display:inline"
     sodipodi:insensitive="true"><g
       id="g3354"><g
         transform="matrix(4.0845439,0,0,-4.0845439,205.0406,95.5749)"
         id="g3328"><path
           id="path3330"
           style="fill:none;stroke:#808080;stroke-width:0.70899999;stroke-linecap:round;stroke-linejoin:round;stroke-miterlimit:10;stroke-opacity:1;stroke-dasharray:none"
           d="m 0,0 36.5,9.8 m 0,0 L 73.1,0 m 0,0 26.7,-26.8 m 0,0 9.8,-36.5 m 0,0 -9.8,-36.6 m 0,0 -26.7,-26.7 m 0,0 -36.6,-9.8 m 0,0 -36.5,9.8 m 0,0 -26.8,26.7 m 0,0 -9.7,36.6 m 0,0 9.7,36.5 m 0,0 L 0,0 M 36.5,-22.2 55.2,-31 m 0,0 4,-9.6 m 0,0 9.7,-4 m 0,0 8.7,-18.7 m 0,0 -8.7,-18.7 m 0,0 -9.7,-4 m 0,0 -4,-9.7 m 0,0 -18.7,-8.7 m 0,0 -18.6,8.7 m 0,0 -4,9.7 m 0,0 -9.7,4 m 0,0 -8.8,18.7 m 8.8,18.7 -8.8,-18.7 m 8.8,18.7 9.7,4 m 0,0 4,9.6 m 0,0 18.6,8.8"
           inkscape:connector-curvature="0" /></g><g
         transform="matrix(4.0845439,0,0,-4.0845439,354.12645,55.546362)"
         id="g3324"><path
           id="path3326"
           style="fill:none;stroke:#808080;stroke-width:0.50999999;stroke-linecap:round;stroke-linejoin:round;stroke-miterlimit:10;stroke-opacity:1;stroke-dasharray:none"
           d="m 0,0 0,-32 m 18.7,-8.8 17.9,31 m -4.2,-44.6 30.9,17.8 m -22.2,-36.5 32,0 m -40.7,-18.7 30.9,-17.9 m -44.6,4.2 17.9,-30.9 m -55.2,30.9 -17.9,-30.9 m 36.5,22.2 0,-32 m -32.3,54.4 -31,-17.9 m 22.2,36.6 -31.9,0 M -22.6,-50.4 0,-73.1 m 0,0 -22.6,-22.7 M 0,-73.1 22.7,-95.8 m 0,45.4 L 0,-73.1 m -18.6,32.3 -17.9,31 m -26.8,-26.8 31,-17.8"
           inkscape:connector-curvature="0" /></g></g></g><g
     inkscape:groupmode="layer"
     id="layer3"
     inkscape:label="disks"
     style="display:none"><g
       id="g3320"
       transform="matrix(4.0845439,0,0,-4.0845439,500.76157,111.09616)"><path
         inkscape:connector-curvature="0"
         d="m 0,0 -0.4,1.1 -0.4,1 -0.5,1.1 -0.5,1 -0.5,1 -0.7,0.9 -0.6,1 -0.7,0.8 -0.8,0.9 -0.8,0.8 -0.8,0.8 -0.9,0.7 -0.9,0.7 -1,0.6 -0.9,0.6 -1,0.6 -1.1,0.5 -1,0.4 -1.1,0.4 -1.1,0.3 -1.1,0.3 -1.1,0.2 -1.1,0.2 -1.2,0.1 -1.1,0 -1.1,0 -1.2,0 -1.1,-0.2 -1.1,-0.1 -1.2,-0.3 -1.1,-0.3 -1,-0.3 -1.1,-0.4 -1.1,-0.5 -1,-0.5 -1,-0.5 -0.9,-0.6 -1,-0.7 -0.9,-0.7 -0.8,-0.7 -0.9,-0.8 -0.7,-0.9 -0.8,-0.8 -0.7,-0.9 -0.6,-1 -0.6,-0.9 -0.6,-1 -0.5,-1 -0.4,-1.1 -0.4,-1.1 -0.4,-1 -0.3,-1.1 -0.2,-1.2 -0.2,-1.1 -0.1,-1.1 -0.1,-1.2 0,-1.1 0.1,-1.1 0.1,-1.2 0.2,-1.1 0.2,-1.1 0.3,-1.1 0.3,-1.1 0.4,-1.1 0.4,-1 0.5,-1.1 0.6,-1 0.5,-0.9 0.7,-1 0.7,-0.9 0.7,-0.9 0.8,-0.8 0.8,-0.8 0.9,-0.7 0.9,-0.8 0.9,-0.6 0.9,-0.6 1,-0.6 1,-0.5 1.1,-0.5 1,-0.4 1.1,-0.3 1.1,-0.3 1.1,-0.3 1.2,-0.2 1.1,-0.1 1.1,-0.1 1.2,0 1.1,0 1.2,0.1 1.1,0.2 1.1,0.2 1.1,0.2 1.1,0.4 1.1,0.3 1,0.5 1.1,0.4 1,0.6 1,0.6 0.9,0.6 0.9,0.7 0.9,0.7 0.9,0.7 0.8,0.9 0.7,0.8 0.7,0.9 0.7,0.9 0.6,1 0.6,0.9 0.5,1 0.5,1.1 0.5,1 0.3,1.1 0.3,1.1 0.3,1.1 0.2,1.1 0.2,1.2 0,1.1 L 1,-6.8 1,-5.6 0.9,-4.5 0.7,-3.3 0.5,-2.2 0.3,-1.1 0,0 m 24.5,-14.2 -0.3,1.1 -0.4,1.1 -0.5,1 -0.5,1 -0.6,1 -0.6,1 -0.7,0.9 -0.7,0.9 -0.7,0.8 -0.8,0.8 -0.9,0.8 -0.9,0.8 -0.9,0.6 -0.9,0.7 -1,0.6 -1,0.5 -1,0.5 L 11,0.3 10,0.7 8.9,1.1 7.8,1.3 6.6,1.5 5.5,1.7 4.4,1.8 3.2,1.9 2.1,1.9 1,1.8 -0.2,1.7 -1.3,1.5 -2.4,1.2 -3.5,1 -4.6,0.6 -5.7,0.2 l -1,-0.4 -1,-0.6 -1,-0.5 -1,-0.6 -0.9,-0.7 -0.9,-0.7 -0.9,-0.7 -0.8,-0.8 -0.8,-0.8 -0.7,-0.9 -0.7,-0.9 -0.7,-0.9 -0.6,-1 -0.5,-1 -0.5,-1 -0.5,-1.1 -0.4,-1 -0.3,-1.1 -0.3,-1.1 -0.3,-1.1 -0.1,-1.2 -0.2,-1.1 0,-1.1 0,-1.2 0,-1.1 0.1,-1.1 0.2,-1.2 0.2,-1.1 0.3,-1.1 0.3,-1.1 0.4,-1.1 0.5,-1 0.5,-1 0.5,-1 0.6,-1 0.6,-0.9 0.7,-1 0.8,-0.8 0.7,-0.9 0.8,-0.8 0.9,-0.7 0.9,-0.7 0.9,-0.7 1,-0.6 1,-0.6 1,-0.5 1,-0.4 1.1,-0.5 1.1,-0.3 1.1,-0.3 1.1,-0.3 1.1,-0.2 1.1,-0.1 1.2,-0.1 1.1,0 1.2,0.1 1.1,0 1.1,0.2 1.1,0.2 1.2,0.3 1,0.3 1.1,0.4 1.1,0.4 1,0.5 1,0.5 1,0.6 1,0.6 0.9,0.7 0.8,0.7 0.9,0.8 0.8,0.8 0.8,0.8 0.7,0.9 0.7,0.9 0.6,1 0.6,1 0.5,1 0.5,1 0.4,1.1 0.4,1 0.3,1.1 0.2,1.2 0.2,1.1 0.2,1.1 0.1,1.1 0,1.2 0,1.1 -0.1,1.2 -0.1,1.1 -0.2,1.1 -0.3,1.1 -0.3,1.1 m 14.2,-24.5 -0.4,1.1 -0.4,1 -0.4,1.1 -0.6,1 -0.5,1 -0.6,0.9 -0.7,0.9 -0.7,0.9 -0.8,0.9 -0.8,0.8 -0.8,0.8 -0.9,0.7 -0.9,0.7 -0.9,0.6 -1,0.6 -1,0.6 -1,0.5 -1.1,0.4 -1.1,0.4 -1.1,0.3 -1.1,0.3 -1.1,0.2 -1.1,0.2 -1.2,0.1 -1.1,0 -1.1,0 -1.2,-0.1 -1.1,-0.1 -1.1,-0.2 -1.1,-0.2 -1.1,-0.3 -1.1,-0.3 -1.1,-0.4 -1,-0.5 -1.1,-0.5 -1,-0.6 -0.9,-0.6 -1,-0.6 -0.9,-0.7 -0.8,-0.8 -0.8,-0.7 -0.8,-0.9 -0.8,-0.8 -0.7,-0.9 -0.6,-1 -0.6,-0.9 -0.6,-1 -0.5,-1.1 -0.4,-1 -0.4,-1.1 -0.4,-1.1 -0.3,-1.1 -0.2,-1.1 -0.2,-1.1 -0.1,-1.1 -0.1,-1.2 0,-1.1 0.1,-1.2 0.1,-1.1 0.2,-1.1 0.2,-1.1 0.3,-1.1 0.3,-1.1 0.4,-1.1 0.4,-1 0.5,-1.1 0.6,-1 0.6,-1 0.6,-0.9 0.7,-0.9 0.7,-0.9 0.8,-0.8 0.8,-0.8 0.9,-0.8 0.9,-0.7 0.9,-0.6 1,-0.6 0.9,-0.6 1.1,-0.5 1,-0.5 1.1,-0.4 1,-0.4 1.1,-0.3 1.2,-0.2 1.1,-0.2 1.1,-0.1 1.1,-0.1 1.2,0 1.1,0 1.2,0.1 1.1,0.2 1.1,0.2 1.1,0.2 1.1,0.3 1.1,0.4 1,0.4 1.1,0.5 1,0.6 1,0.5 0.9,0.7 0.9,0.6 0.9,0.8 0.9,0.7 0.8,0.8 0.7,0.9 0.8,0.9 0.6,0.9 0.7,0.9 0.5,1 0.6,1 0.4,1.1 0.5,1 0.3,1.1 0.4,1.1 0.2,1.1 0.2,1.1 0.2,1.2 0.1,1.1 0,1.1 0,1.2 -0.1,1.1 -0.2,1.1 -0.1,1.2 -0.3,1.1 -0.3,1.1 m 0,-28.4 -0.4,1.1 -0.4,1.1 -0.4,1 -0.6,1 -0.5,1 -0.6,1 -0.7,0.9 -0.7,0.9 -0.8,0.9 -0.8,0.8 -0.8,0.7 -0.9,0.8 -0.9,0.7 -0.9,0.6 -1,0.6 -1,0.5 -1,0.5 -1.1,0.5 -1.1,0.3 -1.1,0.4 -1.1,0.2 -1.1,0.3 -1.1,0.1 -1.2,0.1 -1.1,0.1 -1.1,0 -1.2,-0.1 -1.1,-0.1 -1.1,-0.2 -1.1,-0.2 -1.1,-0.3 -1.1,-0.4 -1.1,-0.4 -1,-0.4 -1.1,-0.5 -1,-0.6 -0.9,-0.6 -1,-0.6 -0.9,-0.7 -0.8,-0.8 -0.8,-0.8 -0.8,-0.8 -0.8,-0.9 -0.7,-0.9 -0.6,-0.9 -0.6,-1 -0.6,-1 -0.5,-1 -0.4,-1 -0.4,-1.1 -0.4,-1.1 -0.3,-1.1 -0.2,-1.1 -0.2,-1.1 -0.1,-1.2 -0.1,-1.1 0,-1.2 0.1,-1.1 0.1,-1.1 0.2,-1.2 0.2,-1.1 0.3,-1.1 0.3,-1.1 0.4,-1 0.4,-1.1 0.5,-1 0.6,-1 0.6,-1 0.6,-0.9 0.7,-0.9 0.7,-0.9 0.8,-0.8 0.8,-0.8 0.9,-0.8 0.9,-0.7 0.9,-0.7 1,-0.6 0.9,-0.5 1.1,-0.6 1,-0.4 1.1,-0.4 1,-0.4 1.1,-0.3 1.2,-0.2 1.1,-0.2 1.1,-0.2 1.1,0 1.2,-0.1 1.1,0.1 1.2,0.1 1.1,0.1 1.1,0.2 1.1,0.3 1.1,0.3 1.1,0.4 1,0.4 1.1,0.5 1,0.5 1,0.6 0.9,0.6 0.9,0.7 0.9,0.7 0.9,0.8 0.8,0.8 0.7,0.8 0.8,0.9 0.6,1 0.7,0.9 0.5,1 0.6,1 0.4,1 0.5,1.1 0.3,1.1 0.4,1.1 0.2,1.1 0.2,1.1 0.2,1.1 0.1,1.2 0,1.1 0,1.1 -0.1,1.2 -0.2,1.1 -0.1,1.1 -0.3,1.1 -0.3,1.1 m -14.2,-24.5 -0.3,1.1 -0.4,1 -0.5,1.1 -0.5,1 -0.6,1 -0.6,0.9 -0.7,1 -0.7,0.9 -0.7,0.8 -0.8,0.8 -0.9,0.8 -0.9,0.7 -0.9,0.7 -0.9,0.7 -1,0.5 -1,0.6 -1,0.5 -1.1,0.4 -1,0.4 -1.1,0.3 -1.1,0.3 -1.2,0.2 -1.1,0.2 -1.1,0.1 -1.2,0 -1.1,0 -1.1,0 -1.2,-0.2 -1.1,-0.1 -1.1,-0.3 -1.1,-0.3 -1.1,-0.3 -1.1,-0.4 -1,-0.5 -1,-0.5 -1,-0.5 -1,-0.6 -0.9,-0.7 -0.9,-0.7 -0.9,-0.7 -0.8,-0.8 -0.8,-0.8 -0.7,-0.9 -0.7,-0.9 -0.7,-1 -0.6,-0.9 -0.5,-1 -0.5,-1 -0.5,-1.1 -0.4,-1.1 -0.3,-1 -0.3,-1.1 -0.3,-1.2 -0.1,-1.1 -0.2,-1.1 0,-1.2 0,-1.1 0,-1.1 0.1,-1.2 0.2,-1.1 0.2,-1.1 0.3,-1.1 0.3,-1.1 0.4,-1.1 0.5,-1 0.5,-1.1 0.5,-1 0.6,-0.9 0.6,-1 0.7,-0.9 0.8,-0.9 0.7,-0.8 0.8,-0.8 0.9,-0.7 0.9,-0.7 0.9,-0.7 1,-0.6 1,-0.6 1,-0.5 1,-0.5 1.1,-0.4 1.1,-0.3 1.1,-0.3 1.1,-0.3 1.1,-0.2 1.1,-0.1 1.2,-0.1 1.1,0 1.2,0 1.1,0.1 1.1,0.2 1.1,0.2 1.2,0.2 1,0.4 1.1,0.3 1.1,0.5 1,0.4 1,0.6 1,0.6 1,0.6 0.9,0.7 0.8,0.7 0.9,0.8 0.8,0.8 0.8,0.8 0.7,0.9 0.7,0.9 0.6,1 0.6,0.9 0.5,1.1 0.5,1 0.4,1 0.4,1.1 0.3,1.1 0.2,1.1 0.2,1.1 0.2,1.2 0.1,1.1 0,1.2 0,1.1 -0.1,1.1 -0.1,1.2 -0.2,1.1 -0.3,1.1 -0.3,1.1 M 0,-105.8 l -0.4,1.1 -0.4,1.1 -0.5,1 -0.5,1 -0.5,1 -0.7,1 -0.6,0.9 -0.7,0.9 -0.8,0.8 -0.8,0.9 -0.8,0.7 -0.9,0.8 -0.9,0.6 -1,0.7 -0.9,0.6 -1,0.5 -1.1,0.5 -1,0.4 -1.1,0.4 -1.1,0.4 -1.1,0.2 -1.1,0.3 -1.1,0.1 -1.2,0.1 -1.1,0.1 -1.1,0 -1.2,-0.1 -1.1,-0.1 -1.1,-0.2 -1.2,-0.2 -1.1,-0.3 -1,-0.4 -1.1,-0.4 -1.1,-0.4 -1,-0.5 -1,-0.6 -0.9,-0.6 -1,-0.7 -0.9,-0.7 -0.8,-0.7 -0.9,-0.8 -0.7,-0.8 -0.8,-0.9 -0.7,-0.9 -0.6,-0.9 -0.6,-1 -0.6,-1 -0.5,-1 -0.4,-1.1 -0.4,-1 -0.4,-1.1 -0.3,-1.1 -0.2,-1.1 -0.2,-1.2 -0.1,-1.1 -0.1,-1.1 0,-1.2 0.1,-1.1 0.1,-1.1 0.2,-1.2 0.2,-1.1 0.3,-1.1 0.3,-1.1 0.4,-1 0.4,-1.1 0.5,-1 0.6,-1 0.5,-1 0.7,-0.9 0.7,-1 0.7,-0.8 0.8,-0.9 0.8,-0.8 0.9,-0.7 0.9,-0.7 0.9,-0.7 0.9,-0.6 1,-0.6 1,-0.5 1.1,-0.4 1,-0.5 1.1,-0.3 1.1,-0.3 1.1,-0.3 1.2,-0.2 1.1,-0.1 1.1,-0.1 1.2,0 1.1,0.1 1.2,0.1 1.1,0.1 1.1,0.2 1.1,0.3 1.1,0.3 1.1,0.4 1,0.4 1.1,0.5 1,0.5 1,0.6 0.9,0.6 0.9,0.7 0.9,0.7 0.9,0.8 0.8,0.8 0.7,0.8 0.7,0.9 0.7,0.9 0.6,1 0.6,1 0.5,1 0.5,1 0.5,1.1 0.3,1.1 0.3,1 0.3,1.2 0.2,1.1 0.2,1.1 0,1.1 0.1,1.2 0,1.1 -0.1,1.2 -0.2,1.1 -0.2,1.1 -0.2,1.1 -0.3,1.1 m -28.4,0 -0.3,1.1 -0.4,1.1 -0.5,1 -0.5,1 -0.6,1 -0.6,1 -0.7,0.9 -0.7,0.9 -0.7,0.8 -0.8,0.9 -0.9,0.7 -0.8,0.8 -1,0.6 -0.9,0.7 -1,0.6 -1,0.5 -1,0.5 -1.1,0.4 -1,0.4 -1.1,0.4 -1.1,0.2 -1.1,0.3 -1.2,0.1 -1.1,0.1 -1.1,0.1 -1.2,0 -1.1,-0.1 -1.2,-0.1 -1.1,-0.2 -1.1,-0.2 -1.1,-0.3 -1.1,-0.4 -1,-0.4 -1.1,-0.4 -1,-0.5 -1,-0.6 -1,-0.6 -0.9,-0.7 -0.9,-0.7 -0.9,-0.7 -0.8,-0.8 -0.8,-0.8 -0.7,-0.9 -0.7,-0.9 -0.7,-0.9 -0.6,-1 -0.5,-1 -0.5,-1 -0.5,-1.1 -0.4,-1 -0.3,-1.1 -0.3,-1.1 -0.2,-1.1 -0.2,-1.2 -0.1,-1.1 -0.1,-1.1 0,-1.2 0,-1.1 0.1,-1.1 0.2,-1.2 0.2,-1.1 0.3,-1.1 0.3,-1.1 0.4,-1 0.5,-1.1 0.5,-1 0.5,-1 0.6,-1 0.7,-0.9 0.6,-1 0.8,-0.8 0.7,-0.9 0.9,-0.8 0.8,-0.7 0.9,-0.7 0.9,-0.7 1,-0.6 1,-0.6 1,-0.5 1,-0.4 1.1,-0.5 1.1,-0.3 1.1,-0.3 1.1,-0.3 1.1,-0.2 1.2,-0.1 1.1,-0.1 1.1,0 1.2,0.1 1.1,0.1 1.1,0.1 1.2,0.2 1.1,0.3 1.1,0.3 1,0.4 1.1,0.4 1,0.5 1,0.5 1,0.6 1,0.6 0.9,0.7 0.9,0.7 0.8,0.8 0.8,0.8 0.8,0.8 0.7,0.9 0.7,0.9 0.6,1 0.6,1 0.5,1 0.5,1 0.4,1.1 0.4,1.1 0.3,1 0.3,1.2 0.2,1.1 0.1,1.1 0.1,1.1 0,1.2 0,1.1 -0.1,1.2 -0.1,1.1 -0.2,1.1 -0.2,1.1 -0.4,1.1 m -24.5,14.2 -0.4,1.1 -0.4,1 -0.4,1.1 -0.6,1 -0.5,1 -0.6,0.9 -0.7,1 -0.7,0.9 -0.8,0.8 -0.8,0.8 -0.8,0.8 -0.9,0.7 -0.9,0.7 -0.9,0.7 -1,0.5 -1,0.6 -1,0.5 -1.1,0.4 -1.1,0.4 -1.1,0.3 -1.1,0.3 -1.1,0.2 -1.1,0.2 -1.1,0.1 -1.2,0 -1.1,0 -1.2,0 -1.1,-0.2 -1.1,-0.1 -1.1,-0.3 -1.1,-0.3 -1.1,-0.3 -1.1,-0.4 -1,-0.5 -1.1,-0.5 -1,-0.5 -0.9,-0.6 -1,-0.7 -0.9,-0.7 -0.8,-0.7 -0.8,-0.8 -0.8,-0.8 -0.8,-0.9 -0.7,-0.9 -0.6,-1 -0.6,-0.9 -0.6,-1 -0.5,-1 -0.4,-1.1 -0.4,-1.1 -0.4,-1 -0.3,-1.1 -0.2,-1.2 -0.2,-1.1 -0.1,-1.1 0,-1.2 -0.1,-1.1 0.1,-1.1 0.1,-1.2 0.2,-1.1 0.2,-1.1 0.3,-1.1 0.3,-1.1 0.4,-1.1 0.4,-1 0.5,-1.1 0.6,-1 0.6,-0.9 0.6,-1 0.7,-0.9 0.7,-0.9 0.8,-0.8 0.8,-0.8 0.9,-0.7 0.9,-0.7 0.9,-0.7 1,-0.6 0.9,-0.6 1.1,-0.5 1,-0.5 1.1,-0.4 1,-0.3 1.1,-0.3 1.2,-0.3 1.1,-0.2 1.1,-0.1 1.2,-0.1 1.1,0 1.1,0 1.2,0.1 1.1,0.2 1.1,0.2 1.1,0.2 1.1,0.4 1.1,0.3 1.1,0.5 1,0.4 1,0.6 1,0.6 0.9,0.6 0.9,0.7 0.9,0.7 0.9,0.8 0.8,0.8 0.7,0.8 0.8,0.9 0.6,0.9 0.7,1 0.5,0.9 0.6,1.1 0.4,1 0.5,1 0.3,1.1 0.4,1.1 0.2,1.1 0.2,1.1 0.2,1.2 0.1,1.1 0,1.2 0,1.1 -0.1,1.1 -0.1,1.2 -0.2,1.1 -0.3,1.1 -0.3,1.1 m -14.2,24.5 -0.3,1.1 -0.4,1.1 -0.5,1 -0.5,1 -0.6,1 -0.6,1 -0.7,0.9 -0.7,0.9 -0.7,0.9 -0.8,0.8 -0.9,0.7 -0.9,0.8 -0.9,0.7 -0.9,0.6 -1,0.6 -1,0.5 -1,0.5 -1.1,0.5 -1,0.3 -1.1,0.4 -1.1,0.2 -1.2,0.3 -1.1,0.1 -1.1,0.1 -1.2,0.1 -1.1,0 -1.1,-0.1 -1.2,-0.1 -1.1,-0.2 -1.1,-0.2 -1.1,-0.3 -1.1,-0.4 -1.1,-0.4 -1,-0.4 -1,-0.5 -1,-0.6 -1,-0.6 -0.9,-0.6 -0.9,-0.7 -0.9,-0.8 -0.8,-0.8 -0.8,-0.8 -0.7,-0.9 -0.7,-0.9 -0.7,-0.9 -0.6,-1 -0.5,-1 -0.5,-1 -0.5,-1 -0.4,-1.1 -0.3,-1.1 -0.3,-1.1 -0.3,-1.1 -0.1,-1.1 -0.2,-1.2 0,-1.1 0,-1.2 0,-1.1 0.1,-1.1 0.2,-1.2 0.2,-1.1 0.3,-1.1 0.3,-1.1 0.4,-1 0.5,-1.1 0.5,-1 0.5,-1 0.6,-1 0.6,-0.9 0.7,-0.9 0.8,-0.9 0.7,-0.8 0.9,-0.8 0.8,-0.8 0.9,-0.7 0.9,-0.7 1,-0.6 1,-0.5 1,-0.6 1,-0.4 1.1,-0.4 1.1,-0.4 1.1,-0.3 1.1,-0.2 1.1,-0.2 1.1,-0.2 1.2,0 1.1,-0.1 1.2,0.1 1.1,0.1 1.1,0.1 1.1,0.2 1.2,0.3 1.1,0.3 1,0.4 1.1,0.4 1,0.5 1,0.5 1,0.6 1,0.6 0.9,0.7 0.9,0.7 0.8,0.8 0.8,0.8 0.8,0.8 0.7,0.9 0.7,1 0.6,0.9 0.6,1 0.5,1 0.5,1 0.4,1.1 0.4,1.1 0.3,1.1 0.2,1.1 0.3,1.1 0.1,1.1 0.1,1.2 0,1.1 0,1.1 -0.1,1.2 -0.1,1.1 -0.2,1.1 -0.3,1.1 -0.3,1.1 m 0,28.4 -0.3,1.1 -0.4,1 -0.5,1.1 -0.5,1 -0.6,1 -0.6,0.9 -0.7,0.9 -0.7,0.9 -0.7,0.9 -0.8,0.8 -0.9,0.8 -0.9,0.7 -0.9,0.7 -0.9,0.6 -1,0.6 -1,0.6 -1,0.5 -1.1,0.4 -1,0.4 -1.1,0.3 -1.1,0.3 -1.2,0.2 -1.1,0.2 -1.1,0.1 -1.2,0 -1.1,0 -1.1,-0.1 -1.2,-0.1 -1.1,-0.2 -1.1,-0.2 -1.1,-0.3 -1.1,-0.3 -1.1,-0.4 -1,-0.5 -1,-0.5 -1,-0.6 -1,-0.6 -0.9,-0.6 -0.9,-0.7 -0.9,-0.8 -0.8,-0.7 -0.8,-0.9 -0.7,-0.8 -0.7,-0.9 -0.7,-1 -0.6,-0.9 -0.5,-1 -0.5,-1.1 -0.5,-1 -0.4,-1.1 -0.3,-1.1 -0.3,-1.1 -0.3,-1.1 -0.1,-1.1 -0.2,-1.1 0,-1.2 0,-1.1 0,-1.2 0.1,-1.1 0.2,-1.1 0.2,-1.1 0.3,-1.1 0.3,-1.1 0.4,-1.1 0.5,-1 0.5,-1.1 0.5,-1 0.6,-1 0.6,-0.9 0.7,-0.9 0.8,-0.9 0.7,-0.8 0.9,-0.8 0.8,-0.8 0.9,-0.7 0.9,-0.6 1,-0.6 1,-0.6 1,-0.5 1,-0.5 1.1,-0.4 1.1,-0.4 1.1,-0.3 1.1,-0.2 1.1,-0.2 1.1,-0.1 1.2,-0.1 1.1,0 1.2,0 1.1,0.1 1.1,0.2 1.1,0.2 1.2,0.2 1.1,0.3 1,0.4 1.1,0.4 1,0.5 1,0.6 1,0.5 1,0.7 0.9,0.6 0.9,0.8 0.8,0.7 0.8,0.8 0.8,0.9 0.7,0.9 0.7,0.9 0.6,0.9 0.6,1 0.5,1 0.5,1.1 0.4,1 0.4,1.1 0.3,1.1 0.2,1.1 0.3,1.1 0.1,1.2 0.1,1.1 0,1.1 0,1.2 -0.1,1.1 -0.1,1.1 -0.2,1.2 -0.3,1.1 -0.3,1.1 m 14.2,24.5 -0.4,1.1 -0.4,1.1 -0.4,1 -0.6,1 -0.5,1 -0.6,1 -0.7,0.9 -0.7,0.9 -0.8,0.8 -0.8,0.8 -0.8,0.8 -0.9,0.8 -0.9,0.6 -0.9,0.7 -1,0.6 -1,0.5 -1,0.5 -1.1,0.4 -1.1,0.4 -1.1,0.4 -1.1,0.2 -1.1,0.2 -1.1,0.2 -1.1,0.1 -1.2,0.1 -1.1,0 -1.2,-0.1 -1.1,-0.1 -1.1,-0.2 -1.1,-0.3 -1.1,-0.2 -1.1,-0.4 -1.1,-0.4 -1,-0.4 -1.1,-0.6 -1,-0.5 -0.9,-0.6 -1,-0.7 -0.9,-0.7 -0.8,-0.7 -0.8,-0.8 -0.8,-0.8 -0.8,-0.9 -0.7,-0.9 -0.6,-0.9 -0.6,-1 -0.6,-1 -0.5,-1 -0.4,-1.1 -0.4,-1 -0.4,-1.1 -0.3,-1.1 -0.2,-1.1 -0.2,-1.2 -0.1,-1.1 0,-1.1 -0.1,-1.2 0.1,-1.1 0.1,-1.1 0.2,-1.2 0.2,-1.1 0.3,-1.1 0.3,-1.1 0.4,-1.1 0.4,-1 0.5,-1 0.6,-1 0.6,-1 0.6,-0.9 0.7,-1 0.7,-0.8 0.8,-0.9 0.8,-0.8 0.9,-0.7 0.9,-0.7 0.9,-0.7 1,-0.6 0.9,-0.6 1.1,-0.5 1,-0.4 1.1,-0.5 1,-0.3 1.1,-0.3 1.2,-0.3 1.1,-0.2 1.1,-0.1 1.2,-0.1 1.1,0 1.1,0.1 1.2,0 1.1,0.2 1.1,0.2 1.1,0.3 1.1,0.3 1.1,0.4 1.1,0.4 1,0.5 1,0.5 1,0.6 0.9,0.6 0.9,0.7 0.9,0.7 0.9,0.8 0.8,0.8 0.7,0.8 0.8,0.9 0.6,0.9 0.7,1 0.5,1 0.6,1 0.4,1 0.5,1.1 0.3,1 0.4,1.1 0.2,1.2 0.2,1.1 0.2,1.1 0.1,1.1 0,1.2 0,1.1 -0.1,1.2 -0.1,1.1 -0.2,1.1 -0.3,1.1 -0.3,1.1 m 24.5,14.2 -0.3,1.1 -0.4,1 -0.5,1.1 -0.5,1 -0.6,1 -0.6,0.9 -0.7,1 -0.7,0.8 -0.7,0.9 -0.8,0.8 -0.9,0.8 -0.8,0.7 -1,0.7 -0.9,0.6 -1,0.6 -1,0.6 -1,0.5 -1.1,0.4 -1,0.4 -1.1,0.3 -1.1,0.3 -1.1,0.2 -1.2,0.2 -1.1,0.1 -1.1,0 -1.2,0 -1.1,0 -1.2,-0.2 -1.1,-0.1 -1.1,-0.3 -1.1,-0.3 -1.1,-0.3 -1,-0.4 -1.1,-0.5 -1,-0.5 -1,-0.5 -1,-0.6 -0.9,-0.7 -0.9,-0.7 -0.9,-0.7 -0.8,-0.8 -0.8,-0.9 -0.7,-0.8 -0.7,-0.9 -0.7,-1 -0.6,-0.9 -0.5,-1 -0.5,-1 -0.5,-1.1 -0.4,-1.1 -0.3,-1 -0.3,-1.1 -0.2,-1.2 -0.2,-1.1 -0.1,-1.1 -0.1,-1.2 0,-1.1 0,-1.1 0.1,-1.2 0.2,-1.1 0.2,-1.1 0.3,-1.1 0.3,-1.1 0.4,-1.1 0.5,-1 0.5,-1.1 0.5,-1 0.6,-0.9 0.7,-1 0.6,-0.9 0.8,-0.9 0.7,-0.8 0.9,-0.8 0.8,-0.7 0.9,-0.8 0.9,-0.6 1,-0.6 1,-0.6 1,-0.5 1,-0.5 1.1,-0.4 1.1,-0.3 1.1,-0.3 1.1,-0.3 1.1,-0.2 1.2,-0.1 1.1,-0.1 1.1,0 1.2,0 1.1,0.1 1.1,0.2 1.2,0.2 1.1,0.2 1.1,0.4 1,0.3 1.1,0.5 1,0.4 1,0.6 1,0.6 1,0.6 0.9,0.7 0.9,0.7 0.8,0.7 0.8,0.9 0.8,0.8 0.7,0.9 0.7,0.9 0.6,1 0.6,0.9 0.5,1 0.5,1.1 0.4,1 0.4,1.1 0.3,1.1 0.3,1.1 0.2,1.1 0.1,1.2 0.1,1.1 0,1.1 0,1.2 -0.1,1.1 -0.1,1.2 -0.2,1.1 -0.2,1.1 -0.4,1.1 m 14.2,-30.2 -0.3,1.1 -0.5,1 -0.4,1.1 -0.5,1 -0.6,1 -0.6,0.9 -0.7,1 -0.7,0.8 -0.8,0.9 -0.8,0.8 -0.8,0.8 -0.9,0.7 -0.9,0.7 -0.9,0.6 -1,0.6 -1,0.6 -1,0.5 -1.1,0.4 -1.1,0.4 -1,0.3 -1.2,0.3 -1.1,0.2 -1.1,0.2 -1.1,0.1 -1.2,0 -1.1,0 -1.2,0 -1.1,-0.2 -1.1,-0.1 -1.1,-0.3 -1.1,-0.3 -1.1,-0.3 -1.1,-0.4 -1,-0.5 -1,-0.5 -1,-0.5 -1,-0.6 -0.9,-0.7 -0.9,-0.7 -0.9,-0.7 -0.8,-0.8 -0.8,-0.9 -0.8,-0.8 -0.6,-0.9 -0.7,-1 -0.6,-0.9 -0.6,-1 -0.5,-1 -0.4,-1.1 -0.4,-1.1 -0.4,-1 -0.2,-1.2 -0.3,-1.1 -0.2,-1.1 -0.1,-1.1 0,-1.2 0,-1.1 0,-1.1 0.1,-1.2 0.2,-1.1 0.2,-1.1 0.3,-1.1 0.3,-1.1 0.4,-1.1 0.4,-1 0.5,-1.1 0.6,-1 0.6,-0.9 0.6,-1 0.7,-0.9 0.7,-0.9 0.8,-0.8 0.8,-0.8 0.9,-0.7 0.9,-0.8 0.9,-0.6 1,-0.6 1,-0.6 1,-0.5 1,-0.5 1.1,-0.4 1.1,-0.4 1.1,-0.3 1.1,-0.2 1.1,-0.2 1.1,-0.1 1.2,-0.1 1.1,0 1.1,0 1.2,0.1 1.1,0.2 1.1,0.2 1.1,0.2 1.1,0.4 1.1,0.3 1.1,0.5 1,0.4 1,0.6 1,0.5 0.9,0.7 1,0.7 0.8,0.7 0.9,0.7 0.8,0.9 0.7,0.8 0.8,0.9 0.6,0.9 0.7,1 0.5,0.9 0.6,1 0.5,1.1 0.4,1 0.4,1.1 0.3,1.1 0.2,1.1 0.2,1.1 0.2,1.2 0.1,1.1 0,1.1 0,1.2 -0.1,1.1 -0.1,1.2 -0.2,1.1 -0.3,1.1 -0.3,1.1 m 22.7,-22.7 -0.4,1.1 -0.4,1.1 -0.4,1 -0.6,1 -0.5,1 -0.7,0.9 -0.6,1 -0.7,0.9 -0.8,0.8 -0.8,0.8 -0.8,0.8 -0.9,0.7 -0.9,0.7 -0.9,0.7 -1,0.6 -1,0.5 -1.1,0.5 -1,0.4 -1.1,0.4 -1.1,0.3 -1.1,0.3 -1.1,0.2 -1.1,0.2 -1.2,0.1 -1.1,0.1 -1.1,-0.1 -1.2,0 -1.1,-0.1 -1.1,-0.2 -1.1,-0.3 -1.1,-0.3 -1.1,-0.3 -1.1,-0.4 -1,-0.5 -1.1,-0.5 -1,-0.5 -0.9,-0.6 -1,-0.7 -0.9,-0.7 -0.8,-0.7 -0.8,-0.8 -0.8,-0.8 -0.8,-0.9 -0.7,-0.9 -0.6,-0.9 -0.6,-1 -0.6,-1 -0.5,-1 -0.4,-1.1 -0.4,-1 -0.4,-1.1 -0.3,-1.1 -0.2,-1.1 -0.2,-1.2 -0.1,-1.1 -0.1,-1.1 0,-1.2 0.1,-1.1 0.1,-1.2 0.2,-1.1 0.2,-1.1 0.3,-1.1 0.3,-1.1 0.4,-1.1 0.4,-1 0.5,-1 0.6,-1 0.6,-1 0.6,-1 0.7,-0.9 0.7,-0.8 0.8,-0.9 0.8,-0.8 0.9,-0.7 0.9,-0.7 0.9,-0.7 0.9,-0.6 1,-0.6 1.1,-0.5 1,-0.5 1.1,-0.4 1,-0.3 1.1,-0.3 1.2,-0.3 1.1,-0.2 1.1,-0.1 1.1,-0.1 1.2,0 1.1,0 1.2,0.1 1.1,0.2 1.1,0.2 1.1,0.3 1.1,0.3 1.1,0.3 1,0.5 1.1,0.5 1,0.5 1,0.6 0.9,0.6 0.9,0.7 0.9,0.7 0.9,0.8 0.8,0.8 0.7,0.8 0.7,0.9 0.7,0.9 0.6,1 0.6,1 0.6,1 0.4,1 0.5,1.1 0.3,1 0.3,1.1 0.3,1.1 0.2,1.2 0.2,1.1 0.1,1.1 0,1.2 0,1.1 -0.1,1.1 -0.2,1.2 -0.1,1.1 -0.3,1.1 -0.3,1.1 m -22.7,-22.7 -0.3,1.1 -0.5,1.1 -0.4,1 -0.5,1 -0.6,1 -0.6,1 -0.7,0.9 -0.7,0.9 -0.8,0.8 -0.8,0.9 -0.8,0.7 -0.9,0.8 -0.9,0.6 -0.9,0.7 -1,0.6 -1,0.5 -1,0.5 -1.1,0.4 -1.1,0.4 -1,0.4 -1.2,0.2 -1.1,0.3 -1.1,0.1 -1.1,0.1 -1.2,0.1 -1.1,0 -1.2,-0.1 -1.1,-0.1 -1.1,-0.2 -1.1,-0.2 -1.1,-0.3 -1.1,-0.4 -1.1,-0.4 -1,-0.4 -1,-0.5 -1,-0.6 -1,-0.6 -0.9,-0.7 -0.9,-0.7 -0.9,-0.7 -0.8,-0.8 -0.8,-0.8 -0.8,-0.9 -0.6,-0.9 -0.7,-0.9 -0.6,-1 -0.6,-1 -0.5,-1 -0.4,-1 -0.4,-1.1 -0.4,-1.1 -0.2,-1.1 -0.3,-1.1 -0.2,-1.1 -0.1,-1.2 0,-1.1 0,-1.2 0,-1.1 0.1,-1.1 0.2,-1.2 0.2,-1.1 0.3,-1.1 0.3,-1.1 0.4,-1 0.4,-1.1 0.5,-1 0.6,-1 0.6,-1 0.6,-0.9 0.7,-0.9 0.7,-0.9 0.8,-0.9 0.8,-0.7 0.9,-0.8 0.9,-0.7 0.9,-0.7 1,-0.6 1,-0.6 1,-0.5 1,-0.4 1.1,-0.4 1.1,-0.4 1.1,-0.3 1.1,-0.3 1.1,-0.1 1.1,-0.2 1.2,-0.1 1.1,0 1.1,0.1 1.2,0.1 1.1,0.1 1.1,0.2 1.1,0.3 1.1,0.3 1.1,0.4 1.1,0.4 1,0.5 1,0.5 1,0.6 0.9,0.6 1,0.7 0.8,0.7 0.9,0.8 0.8,0.8 0.7,0.8 0.8,0.9 0.6,0.9 0.7,1 0.5,1 0.6,1 0.5,1 0.4,1.1 0.4,1.1 0.3,1.1 0.2,1.1 0.2,1.1 0.2,1.1 0.1,1.1 0,1.2 0,1.1 -0.1,1.2 -0.1,1.1 -0.2,1.1 -0.3,1.1 -0.3,1.1 m -22.7,22.7 -0.3,1.1 -0.4,1.1 -0.5,1 -0.5,1 -0.6,1 -0.6,0.9 -0.7,1 -0.7,0.9 -0.7,0.8 -0.8,0.8 -0.9,0.8 -0.8,0.7 -1,0.7 -0.9,0.7 -1,0.6 -1,0.5 -1,0.5 -1.1,0.4 -1,0.4 -1.1,0.3 -1.1,0.3 -1.1,0.2 -1.2,0.2 -1.1,0.1 -1.2,0.1 -1.1,-0.1 -1.1,0 -1.2,-0.1 -1.1,-0.2 -1.1,-0.3 -1.1,-0.3 -1.1,-0.3 -1.1,-0.4 -1,-0.5 -1,-0.5 -1,-0.5 -1,-0.6 -0.9,-0.7 -0.9,-0.7 -0.9,-0.7 -0.8,-0.8 -0.8,-0.8 -0.7,-0.9 -0.7,-0.9 -0.7,-0.9 -0.6,-1 -0.5,-1 -0.5,-1 -0.5,-1.1 -0.4,-1 -0.3,-1.1 -0.3,-1.1 -0.3,-1.1 -0.1,-1.2 -0.2,-1.1 0,-1.1 0,-1.2 0,-1.1 0.1,-1.2 0.2,-1.1 0.2,-1.1 0.3,-1.1 0.3,-1.1 0.4,-1.1 0.5,-1 0.5,-1 0.5,-1 0.6,-1 0.6,-1 0.7,-0.9 0.8,-0.8 0.7,-0.9 0.9,-0.8 0.8,-0.7 0.9,-0.7 0.9,-0.7 1,-0.6 1,-0.6 1,-0.5 1,-0.5 1.1,-0.4 1.1,-0.3 1.1,-0.3 1.1,-0.3 1.1,-0.2 1.2,-0.1 1.1,-0.1 1.1,0 1.2,0 1.1,0.1 1.1,0.2 1.2,0.2 1.1,0.3 1.1,0.3 1,0.3 1.1,0.5 1,0.5 1,0.5 1,0.6 1,0.6 0.9,0.7 0.9,0.7 0.8,0.8 0.8,0.8 0.8,0.8 0.7,0.9 0.7,0.9 0.6,1 0.6,1 0.5,1 0.5,1 0.4,1.1 0.4,1 0.3,1.1 0.3,1.1 0.2,1.2 0.1,1.1 0.1,1.1 0,1.2 0,1.1 -0.1,1.1 -0.1,1.2 -0.2,1.1 -0.3,1.1 -0.3,1.1 m 68.5,14 -0.6,1.9 -0.6,1.9 -0.8,1.9 -0.7,1.8 -0.9,1.9 -0.8,1.8 -1,1.8 -1,1.7 -1,1.7 -1.1,1.7 -1.1,1.7 -1.2,1.6 -1.2,1.6 -1.2,1.6 -1.3,1.5 -1.4,1.5 -1.4,1.4 -1.4,1.4 -1.5,1.4 -1.5,1.3 -1.5,1.3 -1.6,1.2 -1.6,1.2 -1.7,1.2 -1.7,1.1 -1.7,1 -1.7,1 -1.8,1 -1.8,0.8 -1.8,0.9 -1.9,0.8 -1.8,0.7 -1.9,0.7 -1.9,0.7 -1.9,0.5 -2,0.6 -1.9,0.4 -2,0.4 -2,0.4 -1.9,0.3 -2,0.2 -2,0.2 -2,0.2 -2,0 -2,0.1 -2,-0.1 -2.1,-0.1 -2,-0.1 -1.9,-0.2 -2,-0.3 -2,-0.3 -2,-0.4 -1.9,-0.4 -2,-0.5 -1.9,-0.6 -1.9,-0.6 -1.9,-0.6 -1.9,-0.7 -1.9,-0.8 -1.8,-0.8 -1.8,-0.9 -1.8,-0.9 -1.8,-1 -1.7,-1 -1.7,-1 -1.7,-1.2 -1.6,-1.1 -1.6,-1.2 -1.6,-1.3 -1.5,-1.3 -1.5,-1.3 -1.5,-1.4 -1.4,-1.4 -1.3,-1.5 -1.4,-1.5 -1.3,-1.5 -1.2,-1.6 -1.2,-1.6 -1.2,-1.6 -1.1,-1.7 -1,-1.7 -1.1,-1.7 -0.9,-1.8 -0.9,-1.8 -0.9,-1.8 -0.8,-1.8 -0.7,-1.9 -0.7,-1.9 -0.7,-1.9 -0.6,-1.9 -0.5,-1.9 -0.5,-2 -0.4,-1.9 -0.4,-2 -0.3,-2 -0.3,-2 -0.2,-2 -0.1,-2 -0.1,-2 -0.1,-2 0.1,-2 0.1,-2 0.1,-2 0.2,-2 0.2,-2 0.3,-2 0.4,-2 0.4,-1.9 0.5,-2 0.5,-1.9 0.6,-1.9 0.7,-1.9 0.7,-1.9 0.7,-1.9 0.8,-1.8 0.9,-1.8 0.9,-1.8 0.9,-1.8 1,-1.7 1.1,-1.7 1.1,-1.7 1.1,-1.6 1.2,-1.7 1.3,-1.5 1.3,-1.6 1.3,-1.5 1.4,-1.4 1.4,-1.5 1.4,-1.4 1.5,-1.3 1.5,-1.3 1.6,-1.3 1.6,-1.2 1.6,-1.1 1.7,-1.2 1.7,-1 1.7,-1.1 1.8,-0.9 1.8,-1 1.8,-0.8 1.8,-0.8 1.8,-0.8 1.9,-0.7 1.9,-0.7 1.9,-0.6 2,-0.5 1.9,-0.5 2,-0.5 1.9,-0.4 2,-0.3 2,-0.3 2,-0.2 2,-0.2 2,-0.1 2,0 2,0 2,0.1 2,0.1 2,0.2 2,0.2 2,0.3 2,0.4 1.9,0.4 2,0.4 1.9,0.5 1.9,0.6 2,0.7 1.8,0.6 1.9,0.8 1.9,0.8 1.8,0.8 1.8,0.9 1.7,0.9 1.8,1 1.7,1.1 1.7,1 1.6,1.2 1.7,1.2 1.6,1.2 1.5,1.3 1.5,1.3 1.5,1.4 1.4,1.4 1.4,1.4 1.4,1.5 1.3,1.5 1.3,1.5 1.2,1.6 1.2,1.7 1.1,1.6 1.1,1.7 1,1.7 1,1.8 0.9,1.8 0.9,1.8 0.9,1.8 0.7,1.8 0.8,1.9 0.6,1.9 0.7,1.9 0.5,1.9 0.5,2 0.5,1.9 0.4,2 0.3,2 0.3,1.9 0.3,2 0.1,2 0.1,2 0.1,2 0,2.1 0,2 -0.2,2 -0.1,2 -0.2,2 -0.3,1.9 -0.4,2 -0.4,2 -0.4,1.9 -0.5,2 -0.6,1.9"
         style="fill:none;stroke:#808080;stroke-width:0.70899999;stroke-linecap:butt;stroke-linejoin:miter;stroke-miterlimit:10;stroke-opacity:1;stroke-dasharray:none"
         id="path3322" /></g><g
       inkscape:groupmode="layer"
       id="layer5"
       inkscape:label="Layer"
       sodipodi:insensitive="true" /></g></svg>