<?xml version="1.0" encoding="UTF-8" standalone="no"?>
<!-- Created with Inkscape (http://www.inkscape.org/) -->

<svg
   xmlns:dc="http://purl.org/dc/elements/1.1/"
   xmlns:cc="http://creativecommons.org/ns#"
   xmlns:rdf="http://www.w3.org/1999/02/22-rdf-syntax-ns#"
   xmlns:svg="http://www.w3.org/2000/svg"
   xmlns="http://www.w3.org/2000/svg"
   xmlns:sodipodi="http://sodipodi.sourceforge.net/DTD/sodipodi-0.dtd"
   xmlns:inkscape="http://www.inkscape.org/namespaces/inkscape"
   id="svg3019"
   version="1.1"
   inkscape:version="0.48.4 r"
   width="283.46457"
   height="283.46457"
   xml:space="preserve"
   sodipodi:docname="hex_disk_packing_b.ink.svg"><metadata
     id="metadata3025"><rdf:RDF><cc:Work
         rdf:about=""><dc:format>image/svg+xml</dc:format><dc:type
           rdf:resource="http://purl.org/dc/dcmitype/StillImage" /><dc:title></dc:title></cc:Work></rdf:RDF></metadata><defs
     id="defs3023" /><sodipodi:namedview
     pagecolor="#ffffff"
     bordercolor="#666666"
     borderopacity="1"
     objecttolerance="10"
     gridtolerance="10"
     guidetolerance="10"
     inkscape:pageopacity="0"
     inkscape:pageshadow="2"
     inkscape:window-width="1366"
     inkscape:window-height="705"
     id="namedview3021"
     showgrid="false"
     inkscape:object-nodes="true"
     inkscape:snap-global="false"
     inkscape:zoom="1.4881564"
     inkscape:cx="164.15866"
     inkscape:cy="154.10554"
     inkscape:window-x="-8"
     inkscape:window-y="-8"
     inkscape:window-maximized="1"
     inkscape:current-layer="layer5"
     units="mm"
     fit-margin-top="8"
     fit-margin-left="8"
     fit-margin-bottom="8"
     fit-margin-right="8"
     inkscape:document-units="mm" /><g
     id="g3027"
     inkscape:groupmode="layer"
     inkscape:label="hex_disk_packing_b"
     transform="matrix(1.25,0,0,-1.25,-201.28564,878.86199)"
     style="display:none"><g
       id="g3049"
       transform="translate(235.9456,613.114)" /></g><g
     inkscape:groupmode="layer"
     id="layer1"
     inkscape:label="raw_disks"
     style="display:none"
     transform="translate(-201.28564,-113.26422)"><g
       id="g3029"
       transform="matrix(1.25,0,0,-1.25,451.20542,221.934)"><path
         d="m 0,0 -0.8,2.3 -0.7,2.2 -0.9,2.2 -0.9,2.2 -0.9,2.2 -1,2.1 -1.1,2.1 -1.1,2.1 -1.2,2.1 -1.2,2 -1.3,2 -1.3,1.9 -1.4,2 -1.5,1.9 -1.4,1.8 -1.6,1.8 -1.5,1.8 -1.7,1.7 -1.6,1.7 -1.8,1.6 -1.7,1.6 -1.8,1.6 -1.8,1.5 -1.9,1.4 -1.9,1.4 -2,1.4 -1.9,1.3 -2.1,1.2 -2,1.2 -2.1,1.1 -2.1,1.1 -2.1,1 -2.2,1 -2.2,0.9 -2.2,0.9 -2.2,0.8 -2.2,0.7 -2.3,0.7 -2.3,0.6 -2.3,0.6 -2.3,0.5 -2.3,0.4 -2.4,0.4 -2.3,0.3 -2.4,0.3 -2.3,0.2 -2.4,0.1 -2.4,0.1 -2.3,0 -2.4,0 -2.4,-0.1 -2.3,-0.2 -2.4,-0.3 -2.3,-0.3 -2.4,-0.3 -2.3,-0.4 -2.3,-0.5 -2.3,-0.6 -2.3,-0.6 -2.3,-0.6 -2.3,-0.8 -2.2,-0.7 -2.2,-0.9 -2.2,-0.9 -2.2,-0.9 -2.1,-1 -2.1,-1.1 -2.1,-1.1 -2.1,-1.2 -2,-1.2 -2,-1.3 -1.9,-1.3 -2,-1.4 -1.9,-1.5 -1.8,-1.4 -1.8,-1.6 -1.8,-1.5 -1.7,-1.7 -1.7,-1.6 -1.6,-1.7 -1.6,-1.8 -1.6,-1.8 -1.5,-1.8 -1.4,-1.9 -1.4,-1.9 -1.4,-2 -1.3,-1.9 -1.2,-2.1 -1.2,-2 -1.1,-2.1 -1.1,-2.1 -1.1,-2.1 -0.9,-2.2 -0.9,-2.2 -0.9,-2.2 -0.8,-2.2 -0.7,-2.2 -0.7,-2.3 -0.6,-2.3 -0.6,-2.3 -0.5,-2.3 -0.5,-2.3 -0.3,-2.4 -0.4,-2.3 -0.2,-2.4 -0.2,-2.3 -0.1,-2.4 -0.1,-2.4 0,-2.3 0,-2.4 0.1,-2.4 0.2,-2.3 0.3,-2.4 0.2,-2.3 0.4,-2.4 0.4,-2.3 0.5,-2.3 0.6,-2.3 0.6,-2.3 0.6,-2.3 0.7,-2.3 0.8,-2.2 0.9,-2.2 0.9,-2.2 0.9,-2.2 1,-2.1 1.1,-2.1 1.1,-2.1 1.2,-2.1 1.2,-2 1.3,-2 1.3,-1.9 1.4,-2 1.4,-1.9 1.5,-1.8 1.6,-1.8 1.5,-1.8 1.7,-1.7 1.6,-1.7 1.7,-1.6 1.8,-1.6 1.8,-1.6 1.8,-1.5 1.9,-1.4 1.9,-1.4 2,-1.4 1.9,-1.3 2,-1.2 2.1,-1.2 2.1,-1.1 2.1,-1.1 2.1,-1.1 2.2,-0.9 2.2,-0.9 2.2,-0.9 2.2,-0.8 2.2,-0.7 2.3,-0.7 2.3,-0.6 2.3,-0.6 2.3,-0.5 2.3,-0.5 2.4,-0.3 2.3,-0.4 2.4,-0.2 2.3,-0.2 2.4,-0.1 2.4,-0.1 2.3,0 2.4,0 2.4,0.1 2.3,0.2 2.4,0.3 2.3,0.3 2.4,0.3 2.3,0.4 2.3,0.5 2.3,0.6 2.3,0.6 2.3,0.6 2.3,0.7 2.2,0.8 2.2,0.9 2.2,0.9 2.2,0.9 2.1,1 2.1,1.1 2.1,1.1 2.1,1.2 2,1.2 2,1.3 1.9,1.3 2,1.4 1.8,1.5 1.9,1.4 1.8,1.6 1.8,1.5 1.7,1.7 1.7,1.6 1.6,1.7 1.6,1.8 1.6,1.8 1.5,1.8 1.4,1.9 1.4,1.9 1.4,2 1.3,1.9 1.2,2 1.2,2.1 1.1,2.1 1.1,2.1 1,2.1 1,2.2 0.9,2.2 0.9,2.2 0.8,2.2 0.7,2.2 0.7,2.3 0.6,2.3 0.6,2.3 0.5,2.3 0.4,2.3 0.4,2.4 0.3,2.3 0.3,2.4 0.2,2.3 0.1,2.4 0.1,2.4 0,2.3 0,2.4 -0.1,2.4 -0.2,2.3 -0.3,2.4 L 3,-13.9 2.7,-11.5 2.3,-9.2 1.8,-6.9 1.2,-4.6 0.6,-2.3 0,0 m -92.3,41.8 -0.4,1.3 -0.5,1.2 -0.5,1.2 -0.6,1.2 -0.6,1.1 -0.6,1.1 -0.8,1.1 -0.7,1.1 -0.8,1 -0.9,1 -0.9,1 -0.9,0.9 -1,0.8 -1,0.9 -1,0.8 -1.1,0.7 -1.1,0.7 -1.2,0.6 -1.1,0.6 -1.2,0.5 -1.2,0.5 -1.3,0.5 -1.2,0.3 -1.3,0.4 -1.3,0.2 -1.3,0.2 -1.3,0.2 -1.3,0.1 -1.3,0 -1.3,0 -1.3,-0.1 -1.3,-0.1 -1.3,-0.2 -1.3,-0.2 -1.2,-0.3 -1.3,-0.4 -1.2,-0.4 -1.2,-0.5 -1.2,-0.5 -1.2,-0.5 -1.2,-0.7 -1.1,-0.6 -1.1,-0.7 -1,-0.8 -1.1,-0.8 -1,-0.9 -0.9,-0.9 -0.9,-0.9 -0.9,-1 -0.8,-1 -0.8,-1 -0.7,-1.1 -0.7,-1.1 -0.7,-1.2 -0.5,-1.1 -0.6,-1.2 -0.5,-1.2 -0.4,-1.3 -0.4,-1.2 -0.3,-1.3 -0.3,-1.3 -0.2,-1.2 -0.1,-1.3 -0.1,-1.3 -0.1,-1.4 0.1,-1.3 0,-1.3 0.2,-1.3 0.1,-1.3 0.3,-1.2 0.3,-1.3 0.3,-1.3 0.5,-1.2 0.4,-1.2 0.5,-1.2 0.6,-1.2 0.6,-1.2 0.7,-1.1 0.7,-1.1 0.8,-1 0.8,-1.1 0.8,-0.9 0.9,-1 1,-0.9 0.9,-0.9 1,-0.8 1.1,-0.8 1.1,-0.7 1.1,-0.7 1.1,-0.6 1.2,-0.6 1.2,-0.6 1.2,-0.5 1.2,-0.4 1.3,-0.4 1.2,-0.3 1.3,-0.2 1.3,-0.3 1.3,-0.1 1.3,-0.1 1.3,0 1.3,0 1.3,0 1.3,0.2 1.3,0.2 1.3,0.2 1.3,0.3 1.2,0.4 1.3,0.4 1.2,0.4 1.2,0.5 1.2,0.6 1.1,0.6 1.1,0.7 1.1,0.7 1.1,0.8 1,0.8 1,0.8 1,0.9 0.9,1 0.8,0.9 0.9,1.1 0.7,1 0.8,1.1 0.7,1.1 0.6,1.1 0.6,1.2 0.5,1.2 0.5,1.2 0.4,1.2 0.4,1.3 0.3,1.3 0.3,1.2 0.2,1.3 0.2,1.3 0.1,1.3 0,1.3 0,1.3 -0.1,1.3 -0.1,1.3 -0.2,1.3 -0.2,1.3 -0.3,1.3 -0.4,1.2 m 34.4,9.2 -0.4,1.3 -0.5,1.2 -0.5,1.2 -0.6,1.2 -0.6,1.1 -0.7,1.2 -0.7,1 -0.7,1.1 -0.9,1 -0.8,1 -0.9,1 -0.9,0.9 -1,0.9 -1,0.8 -1.1,0.8 -1.1,0.7 -1.1,0.7 -1.1,0.6 -1.2,0.6 -1.2,0.5 -1.2,0.5 -1.2,0.5 -1.3,0.3 -1.2,0.4 -1.3,0.2 -1.3,0.2 -1.3,0.2 -1.3,0.1 -1.3,0 -1.3,0 -1.3,-0.1 -1.3,-0.1 -1.3,-0.2 -1.3,-0.2 -1.2,-0.3 -1.3,-0.4 -1.2,-0.4 -1.3,-0.5 -1.2,-0.5 -1.1,-0.5 -1.2,-0.7 -1.1,-0.6 -1.1,-0.7 -1.1,-0.8 -1,-0.8 -1,-0.9 -0.9,-0.9 -0.9,-0.9 -0.9,-1 -0.8,-1 -0.8,-1 -0.8,-1.1 -0.6,-1.1 -0.7,-1.2 -0.6,-1.1 -0.5,-1.2 -0.5,-1.2 -0.4,-1.3 -0.4,-1.2 -0.3,-1.3 -0.3,-1.3 -0.2,-1.2 -0.2,-1.3 0,-1.3 -0.1,-1.3 0,-1.4 0.1,-1.3 0.1,-1.3 0.2,-1.2 0.3,-1.3 0.3,-1.3 0.3,-1.3 0.4,-1.2 0.5,-1.2 0.5,-1.2 0.6,-1.2 0.6,-1.1 0.7,-1.2 0.7,-1.1 0.7,-1 0.8,-1 0.9,-1 0.9,-1 0.9,-0.9 1,-0.9 1,-0.8 1.1,-0.8 1,-0.7 1.2,-0.7 1.1,-0.6 1.2,-0.6 1.1,-0.6 1.3,-0.4 1.2,-0.5 1.2,-0.4 1.3,-0.3 1.3,-0.2 1.3,-0.2 1.3,-0.2 1.3,-0.1 1.3,0 1.3,0 1.3,0.1 1.3,0.1 1.3,0.2 1.3,0.2 1.2,0.3 1.3,0.4 1.2,0.4 1.3,0.4 1.2,0.6 1.1,0.5 1.2,0.6 1.1,0.7 1.1,0.7 1.1,0.8 1,0.8 1,0.8 0.9,0.9 0.9,1 0.9,1 0.8,1 0.8,1 0.7,1.1 0.7,1.1 0.7,1.1 0.6,1.2 0.5,1.2 0.5,1.2 0.4,1.2 0.4,1.3 0.3,1.3 0.3,1.2 0.2,1.3 0.1,1.3 0.1,1.3 0.1,1.3 0,1.3 -0.1,1.3 -0.1,1.3 -0.2,1.3 -0.3,1.3 -0.3,1.3 -0.3,1.2 m 34.3,-9.2 -0.4,1.3 -0.4,1.2 -0.5,1.2 -0.6,1.2 -0.6,1.1 -0.7,1.1 -0.7,1.1 -0.8,1.1 -0.8,1 -0.8,1 -0.9,1 -1,0.9 -0.9,0.8 -1.1,0.9 -1,0.8 -1.1,0.7 -1.1,0.7 -1.1,0.6 -1.2,0.6 -1.2,0.5 -1.2,0.5 -1.2,0.5 -1.3,0.3 -1.2,0.4 -1.3,0.2 -1.3,0.2 -1.3,0.2 -1.3,0.1 -1.3,0 -1.3,0 -1.3,-0.1 -1.3,-0.1 -1.3,-0.2 -1.3,-0.2 -1.3,-0.3 -1.2,-0.4 -1.3,-0.4 -1.2,-0.5 -1.2,-0.5 -1.2,-0.5 -1.1,-0.7 -1.1,-0.6 -1.1,-0.7 -1.1,-0.8 -1,-0.8 -1,-0.9 -1,-0.9 -0.9,-0.9 -0.8,-1 -0.9,-1 -0.8,-1 -0.7,-1.1 -0.7,-1.1 -0.6,-1.2 -0.6,-1.1 -0.5,-1.2 -0.5,-1.2 -0.5,-1.3 -0.3,-1.2 -0.3,-1.3 -0.3,-1.3 -0.2,-1.2 -0.2,-1.3 -0.1,-1.3 0,-1.4 0,-1.3 0.1,-1.3 0.1,-1.3 0.2,-1.3 0.2,-1.2 0.3,-1.3 0.4,-1.3 0.4,-1.2 0.5,-1.2 0.5,-1.2 0.5,-1.2 0.7,-1.2 0.6,-1.1 0.7,-1.1 0.8,-1 0.8,-1.1 0.9,-0.9 0.9,-1 0.9,-0.9 1,-0.9 1,-0.8 1,-0.8 1.1,-0.7 1.1,-0.7 1.2,-0.6 1.1,-0.6 1.2,-0.6 1.2,-0.5 1.3,-0.4 1.2,-0.4 1.3,-0.3 1.3,-0.2 1.3,-0.3 1.2,-0.1 1.4,-0.1 1.3,0 1.3,0 1.3,0 1.3,0.2 1.3,0.2 1.2,0.2 1.3,0.3 1.3,0.4 1.2,0.4 1.2,0.4 1.2,0.5 1.2,0.6 1.2,0.6 1.1,0.7 1.1,0.7 1,0.8 1.1,0.8 0.9,0.8 1,0.9 0.9,1 0.9,0.9 0.8,1.1 0.8,1 0.7,1.1 0.7,1.1 0.6,1.1 0.6,1.2 0.6,1.2 0.5,1.2 0.4,1.2 0.4,1.3 0.3,1.3 0.3,1.2 0.2,1.3 0.1,1.3 0.1,1.3 0.1,1.3 -0.1,1.3 0,1.3 -0.2,1.3 -0.2,1.3 -0.2,1.3 -0.3,1.3 -0.4,1.2 m 25.2,-25.1 -0.4,1.2 -0.5,1.2 -0.5,1.2 -0.5,1.2 -0.7,1.2 -0.6,1.1 -0.7,1.1 -0.8,1 -0.8,1.1 -0.9,1 -0.9,0.9 -0.9,0.9 -1,0.9 -1,0.8 -1,0.8 -1.1,0.7 -1.1,0.7 -1.2,0.7 -1.1,0.5 -1.2,0.6 -1.2,0.5 -1.3,0.4 -1.2,0.4 -1.3,0.3 -1.3,0.3 -1.3,0.2 -1.2,0.1 -1.4,0.1 -1.3,0.1 -1.3,-0.1 -1.3,0 -1.3,-0.2 -1.3,-0.2 -1.2,-0.2 -1.3,-0.3 -1.3,-0.4 -1.2,-0.4 -1.2,-0.4 -1.2,-0.5 -1.2,-0.6 -1.2,-0.6 -1.1,-0.7 -1.1,-0.7 -1,-0.8 -1.1,-0.8 -0.9,-0.8 -1,-0.9 -0.9,-1 -0.9,-0.9 -0.8,-1 -0.8,-1.1 -0.7,-1.1 -0.7,-1.1 -0.6,-1.1 -0.6,-1.2 -0.6,-1.2 -0.5,-1.2 -0.4,-1.2 -0.4,-1.3 -0.3,-1.2 -0.3,-1.3 -0.2,-1.3 -0.1,-1.3 -0.1,-1.3 -0.1,-1.3 0.1,-1.3 0,-1.3 0.2,-1.3 0.2,-1.3 0.2,-1.3 0.3,-1.3 0.4,-1.2 0.4,-1.3 0.4,-1.2 0.5,-1.2 0.6,-1.2 0.6,-1.1 0.7,-1.1 0.7,-1.1 0.8,-1.1 0.8,-1 0.8,-1 0.9,-1 1,-0.9 0.9,-0.8 1.1,-0.9 1,-0.7 1.1,-0.8 1.1,-0.7 1.1,-0.6 1.2,-0.6 1.2,-0.5 1.2,-0.5 1.2,-0.4 1.3,-0.4 1.2,-0.3 1.3,-0.3 1.3,-0.2 1.3,-0.2 1.3,-0.1 1.3,0 1.3,0 1.3,0.1 1.3,0.1 1.3,0.2 1.3,0.2 1.3,0.3 1.2,0.4 1.3,0.4 1.2,0.5 1.2,0.5 1.2,0.5 1.1,0.7 1.1,0.6 1.1,0.8 1.1,0.7 1,0.8 1,0.9 1,0.9 0.9,0.9 0.8,1 0.9,1 0.8,1 0.7,1.1 0.7,1.1 0.6,1.2 0.6,1.1 0.5,1.2 0.5,1.2 0.5,1.3 0.3,1.2 0.3,1.3 0.3,1.3 0.2,1.3 0.2,1.3 0.1,1.3 0,1.3 0,1.3 -0.1,1.3 -0.1,1.3 -0.2,1.3 -0.2,1.2 -0.3,1.3 -0.4,1.3 m 9.2,-34.4 -0.4,1.2 -0.5,1.3 -0.5,1.2 -0.5,1.1 -0.7,1.2 -0.6,1.1 -0.7,1.1 -0.8,1.1 -0.8,1 -0.9,1 -0.9,0.9 -0.9,0.9 -1,0.9 -1,0.8 -1,0.8 -1.1,0.8 -1.1,0.6 -1.2,0.7 -1.1,0.6 -1.2,0.5 -1.2,0.5 -1.3,0.4 -1.2,0.4 -1.3,0.3 -1.3,0.3 -1.2,0.2 -1.3,0.1 -1.3,0.1 -1.3,0.1 -1.4,0 -1.3,-0.1 -1.3,-0.1 -1.2,-0.2 -1.3,-0.3 -1.3,-0.3 -1.3,-0.3 -1.2,-0.4 -1.2,-0.5 -1.2,-0.5 -1.2,-0.6 -1.1,-0.6 -1.2,-0.7 -1.1,-0.7 -1,-0.7 -1,-0.9 -1,-0.8 -1,-0.9 -0.9,-0.9 -0.9,-1 -0.8,-1 -0.8,-1.1 -0.7,-1 -0.7,-1.2 -0.6,-1.1 -0.6,-1.2 -0.6,-1.2 -0.4,-1.2 -0.5,-1.2 -0.4,-1.3 -0.3,-1.2 -0.2,-1.3 -0.3,-1.3 -0.1,-1.3 -0.1,-1.3 0,-1.3 0,-1.3 0.1,-1.3 0.1,-1.3 0.2,-1.3 0.2,-1.3 0.3,-1.2 0.4,-1.3 0.4,-1.2 0.4,-1.3 0.6,-1.2 0.5,-1.1 0.6,-1.2 0.7,-1.1 0.7,-1.1 0.8,-1.1 0.8,-1 0.8,-1 0.9,-0.9 1,-0.9 1,-0.9 1,-0.8 1,-0.8 1.1,-0.8 1.1,-0.6 1.1,-0.7 1.2,-0.6 1.2,-0.5 1.2,-0.5 1.2,-0.4 1.3,-0.4 1.3,-0.3 1.2,-0.3 1.3,-0.2 1.3,-0.1 1.3,-0.1 1.3,-0.1 1.3,0 1.3,0.1 1.3,0.1 1.3,0.2 1.3,0.3 1.3,0.3 1.2,0.3 1.3,0.4 1.2,0.5 1.2,0.5 1.2,0.6 1.1,0.6 1.2,0.7 1,0.7 1.1,0.7 1,0.8 1,0.9 1,0.9 0.9,0.9 0.9,1 0.8,1 0.8,1.1 0.7,1 0.7,1.2 0.6,1.1 0.6,1.2 0.5,1.2 0.5,1.2 0.5,1.2 0.3,1.2 0.4,1.3 0.2,1.3 0.2,1.3 0.2,1.3 0.1,1.3 0,1.3 0,1.3 -0.1,1.3 -0.1,1.3 -0.2,1.3 -0.2,1.3 -0.3,1.2 -0.4,1.3 m -9.2,-34.4 -0.4,1.3 -0.5,1.2 -0.5,1.2 -0.5,1.2 -0.7,1.1 -0.6,1.1 -0.7,1.1 -0.8,1.1 -0.8,1 -0.9,1 -0.9,1 -0.9,0.9 -1,0.8 -1,0.9 -1,0.7 -1.1,0.8 -1.1,0.7 -1.2,0.6 -1.1,0.6 -1.2,0.5 -1.2,0.5 -1.3,0.4 -1.2,0.4 -1.3,0.3 -1.3,0.3 -1.3,0.2 -1.2,0.2 -1.4,0.1 -1.3,0 -1.3,0 -1.3,-0.1 -1.3,-0.1 -1.3,-0.2 -1.2,-0.2 -1.3,-0.3 -1.3,-0.4 -1.2,-0.4 -1.2,-0.5 -1.2,-0.5 -1.2,-0.6 -1.2,-0.6 -1.1,-0.6 -1.1,-0.8 -1,-0.7 -1.1,-0.8 -0.9,-0.9 -1,-0.9 -0.9,-0.9 -0.9,-1 -0.8,-1 -0.8,-1 -0.7,-1.1 -0.7,-1.1 -0.6,-1.2 -0.6,-1.1 -0.6,-1.2 -0.5,-1.2 -0.4,-1.3 -0.4,-1.2 -0.3,-1.3 -0.3,-1.3 -0.2,-1.3 -0.1,-1.3 -0.1,-1.3 -0.1,-1.3 0.1,-1.3 0,-1.3 0.2,-1.3 0.2,-1.3 0.2,-1.2 0.3,-1.3 0.4,-1.3 0.4,-1.2 0.4,-1.2 0.5,-1.2 0.6,-1.2 0.6,-1.2 0.7,-1.1 0.7,-1.1 0.8,-1 0.8,-1.1 0.8,-1 0.9,-0.9 1,-0.9 0.9,-0.9 1.1,-0.8 1,-0.8 1.1,-0.7 1.1,-0.7 1.1,-0.7 1.2,-0.5 1.2,-0.6 1.2,-0.5 1.2,-0.4 1.3,-0.4 1.2,-0.3 1.3,-0.3 1.3,-0.2 1.3,-0.1 1.3,-0.1 1.3,-0.1 1.3,0.1 1.3,0 1.3,0.2 1.3,0.2 1.3,0.2 1.3,0.3 1.2,0.3 1.3,0.5 1.2,0.4 1.2,0.5 1.2,0.6 1.1,0.6 1.1,0.7 1.1,0.7 1.1,0.8 1,0.8 1,0.8 1,0.9 0.9,1 0.8,0.9 0.9,1 0.8,1.1 0.7,1.1 0.7,1.1 0.6,1.1 0.6,1.2 0.5,1.2 0.5,1.2 0.5,1.2 0.3,1.3 0.3,1.2 0.3,1.3 0.2,1.3 0.2,1.3 0.1,1.3 0,1.3 0,1.3 -0.1,1.3 -0.1,1.3 -0.2,1.3 -0.2,1.3 -0.3,1.3 -0.4,1.2 m -25.2,-25.1 -0.4,1.2 -0.4,1.2 -0.5,1.2 -0.6,1.2 -0.6,1.2 -0.7,1.1 -0.7,1.1 -0.8,1 -0.8,1.1 -0.8,0.9 -0.9,1 -1,0.9 -0.9,0.9 -1.1,0.8 -1,0.8 -1.1,0.7 -1.1,0.7 -1.1,0.6 -1.2,0.6 -1.2,0.6 -1.2,0.4 -1.2,0.5 -1.3,0.4 -1.2,0.3 -1.3,0.2 -1.3,0.3 -1.3,0.1 -1.3,0.1 -1.3,0 -1.3,0 -1.3,0 -1.3,-0.2 -1.3,-0.2 -1.3,-0.2 -1.3,-0.3 -1.2,-0.4 -1.3,-0.4 -1.2,-0.4 -1.2,-0.6 -1.2,-0.5 -1.1,-0.6 -1.1,-0.7 -1.1,-0.7 -1.1,-0.8 -1,-0.8 -1,-0.8 -1,-0.9 -0.9,-1 -0.8,-0.9 -0.9,-1.1 -0.8,-1 -0.7,-1.1 -0.7,-1.1 -0.6,-1.1 -0.6,-1.2 -0.5,-1.2 -0.5,-1.2 -0.5,-1.2 -0.3,-1.3 -0.3,-1.3 -0.3,-1.2 -0.2,-1.3 -0.2,-1.3 -0.1,-1.3 0,-1.3 0,-1.3 0.1,-1.3 0.1,-1.3 0.2,-1.3 0.2,-1.3 0.3,-1.3 0.4,-1.2 0.4,-1.3 0.5,-1.2 0.5,-1.2 0.5,-1.2 0.7,-1.1 0.6,-1.2 0.7,-1 0.8,-1.1 0.8,-1 0.9,-1 0.9,-1 0.9,-0.9 1,-0.9 1,-0.8 1,-0.8 1.1,-0.7 1.1,-0.7 1.2,-0.6 1.1,-0.6 1.2,-0.5 1.2,-0.5 1.3,-0.5 1.2,-0.3 1.3,-0.4 1.3,-0.2 1.3,-0.2 1.2,-0.2 1.4,-0.1 1.3,0 1.3,0 1.3,0.1 1.3,0.1 1.3,0.2 1.2,0.2 1.3,0.3 1.3,0.4 1.2,0.4 1.2,0.5 1.2,0.5 1.2,0.5 1.2,0.7 1.1,0.6 1.1,0.7 1,0.8 1.1,0.8 0.9,0.9 1,0.9 0.9,0.9 0.9,1 0.8,1 0.8,1 0.7,1.1 0.7,1.1 0.6,1.2 0.6,1.1 0.6,1.2 0.5,1.2 0.4,1.3 0.4,1.2 0.3,1.3 0.3,1.3 0.2,1.2 0.1,1.3 0.1,1.3 0.1,1.3 -0.1,1.4 0,1.3 -0.2,1.3 -0.2,1.3 -0.2,1.2 -0.3,1.3 -0.4,1.3 m -34.3,-9.2 -0.4,1.2 -0.5,1.2 -0.5,1.2 -0.6,1.2 -0.6,1.1 -0.7,1.2 -0.7,1.1 -0.7,1 -0.9,1 -0.8,1 -0.9,1 -0.9,0.9 -1,0.9 -1,0.8 -1.1,0.8 -1.1,0.7 -1.1,0.7 -1.1,0.6 -1.2,0.6 -1.2,0.6 -1.2,0.4 -1.2,0.5 -1.3,0.3 -1.2,0.4 -1.3,0.2 -1.3,0.2 -1.3,0.2 -1.3,0.1 -1.3,0 -1.3,0 -1.3,-0.1 -1.3,-0.1 -1.3,-0.2 -1.3,-0.2 -1.2,-0.3 -1.3,-0.4 -1.2,-0.4 -1.3,-0.4 -1.2,-0.6 -1.1,-0.5 -1.2,-0.6 -1.1,-0.7 -1.1,-0.7 -1.1,-0.8 -1,-0.8 -1,-0.9 -0.9,-0.8 -0.9,-1 -0.9,-1 -0.8,-1 -0.8,-1 -0.8,-1.1 -0.6,-1.1 -0.7,-1.1 -0.6,-1.2 -0.5,-1.2 -0.5,-1.2 -0.4,-1.2 -0.4,-1.3 -0.3,-1.3 -0.3,-1.2 -0.2,-1.3 -0.2,-1.3 0,-1.3 -0.1,-1.3 0,-1.3 0.1,-1.3 0.1,-1.3 0.2,-1.3 0.3,-1.3 0.3,-1.3 0.3,-1.3 0.4,-1.2 0.5,-1.2 0.5,-1.2 0.6,-1.2 0.6,-1.1 0.7,-1.2 0.7,-1.1 0.7,-1 0.8,-1 0.9,-1 0.9,-1 0.9,-0.9 1,-0.9 1,-0.8 1.1,-0.8 1,-0.7 1.2,-0.7 1.1,-0.6 1.2,-0.6 1.1,-0.6 1.3,-0.4 1.2,-0.5 1.2,-0.3 1.3,-0.4 1.3,-0.2 1.3,-0.2 1.3,-0.2 1.3,-0.1 1.3,0 1.3,0 1.3,0.1 1.3,0.1 1.3,0.2 1.3,0.2 1.2,0.3 1.3,0.4 1.2,0.4 1.3,0.4 1.2,0.6 1.1,0.5 1.2,0.6 1.1,0.7 1.1,0.7 1.1,0.8 1,0.8 1,0.9 0.9,0.9 0.9,0.9 0.9,1 0.8,1 0.8,1 0.7,1.1 0.7,1.1 0.7,1.1 0.6,1.2 0.5,1.2 0.5,1.2 0.4,1.3 0.4,1.2 0.3,1.3 0.3,1.2 0.2,1.3 0.1,1.3 0.1,1.3 0.1,1.3 0,1.3 -0.1,1.3 -0.1,1.3 -0.2,1.3 -0.3,1.3 -0.3,1.3 -0.3,1.3 m -34.4,9.2 -0.4,1.2 -0.5,1.2 -0.5,1.2 -0.6,1.2 -0.6,1.2 -0.6,1.1 -0.8,1.1 -0.7,1 -0.8,1.1 -0.9,0.9 -0.9,1 -0.9,0.9 -1,0.9 -1,0.8 -1,0.8 -1.1,0.7 -1.1,0.7 -1.2,0.6 -1.1,0.6 -1.2,0.6 -1.2,0.4 -1.3,0.5 -1.2,0.4 -1.3,0.3 -1.3,0.2 -1.3,0.3 -1.3,0.1 -1.3,0.1 -1.3,0 -1.3,0 -1.3,0 -1.3,-0.2 -1.3,-0.2 -1.3,-0.2 -1.2,-0.3 -1.3,-0.4 -1.2,-0.4 -1.2,-0.4 -1.2,-0.6 -1.2,-0.5 -1.2,-0.6 -1.1,-0.7 -1.1,-0.7 -1,-0.8 -1.1,-0.8 -1,-0.8 -0.9,-0.9 -0.9,-1 -0.9,-0.9 -0.8,-1.1 -0.8,-1 -0.7,-1.1 -0.7,-1.1 -0.7,-1.1 -0.5,-1.2 -0.6,-1.2 -0.5,-1.2 -0.4,-1.2 -0.4,-1.3 -0.3,-1.3 -0.3,-1.2 -0.2,-1.3 -0.1,-1.3 -0.1,-1.3 -0.1,-1.3 0.1,-1.3 0,-1.3 0.2,-1.3 0.1,-1.3 0.3,-1.3 0.3,-1.3 0.3,-1.2 0.5,-1.3 0.4,-1.2 0.5,-1.2 0.6,-1.2 0.6,-1.1 0.7,-1.2 0.7,-1 0.8,-1.1 0.8,-1 0.8,-1 0.9,-1 1,-0.9 0.9,-0.9 1,-0.8 1.1,-0.8 1.1,-0.7 1.1,-0.7 1.1,-0.6 1.2,-0.6 1.2,-0.5 1.2,-0.5 1.2,-0.5 1.3,-0.3 1.2,-0.4 1.3,-0.2 1.3,-0.2 1.3,-0.2 1.3,-0.1 1.3,0 1.3,0 1.3,0.1 1.3,0.1 1.3,0.2 1.3,0.2 1.3,0.3 1.2,0.4 1.3,0.4 1.2,0.5 1.2,0.5 1.2,0.5 1.1,0.7 1.1,0.6 1.1,0.7 1.1,0.8 1,0.8 1,0.9 1,0.9 0.9,0.9 0.8,1 0.9,1 0.7,1 0.8,1.1 0.7,1.1 0.6,1.2 0.6,1.1 0.5,1.2 0.5,1.2 0.4,1.3 0.4,1.2 0.3,1.3 0.3,1.3 0.2,1.2 0.2,1.3 0.1,1.3 0,1.3 0,1.4 -0.1,1.3 -0.1,1.3 -0.2,1.3 -0.2,1.2 -0.3,1.3 -0.4,1.3 m -25.2,25.1 -0.4,1.3 -0.4,1.2 -0.6,1.2 -0.5,1.2 -0.6,1.1 -0.7,1.1 -0.7,1.1 -0.8,1.1 -0.8,1 -0.8,1 -0.9,1 -1,0.9 -1,0.8 -1,0.9 -1,0.7 -1.1,0.8 -1.1,0.7 -1.1,0.6 -1.2,0.6 -1.2,0.5 -1.2,0.5 -1.2,0.4 -1.3,0.4 -1.3,0.3 -1.2,0.3 -1.3,0.2 -1.3,0.2 -1.3,0.1 -1.3,0 -1.3,0 -1.3,-0.1 -1.3,-0.1 -1.3,-0.2 -1.3,-0.2 -1.3,-0.3 -1.2,-0.4 -1.3,-0.4 -1.2,-0.5 -1.2,-0.5 -1.2,-0.6 -1.1,-0.6 -1.2,-0.6 -1,-0.8 -1.1,-0.7 -1,-0.8 -1,-0.9 -1,-0.9 -0.9,-0.9 -0.9,-1 -0.8,-1 -0.8,-1 -0.7,-1.1 -0.7,-1.1 -0.6,-1.2 -0.6,-1.1 -0.5,-1.2 -0.5,-1.2 -0.5,-1.3 -0.3,-1.2 -0.4,-1.3 -0.2,-1.3 -0.2,-1.3 -0.2,-1.3 -0.1,-1.3 0,-1.3 0,-1.3 0.1,-1.3 0.1,-1.3 0.2,-1.3 0.2,-1.2 0.3,-1.3 0.4,-1.3 0.4,-1.2 0.5,-1.2 0.5,-1.2 0.5,-1.2 0.7,-1.2 0.6,-1.1 0.7,-1.1 0.8,-1 0.8,-1.1 0.9,-1 0.9,-0.9 0.9,-0.9 1,-0.9 1,-0.8 1,-0.8 1.1,-0.7 1.1,-0.7 1.2,-0.7 1.1,-0.5 1.2,-0.6 1.2,-0.5 1.3,-0.4 1.2,-0.4 1.3,-0.3 1.3,-0.3 1.2,-0.2 1.3,-0.1 1.3,-0.1 1.3,-0.1 1.4,0.1 1.3,0 1.3,0.2 1.2,0.2 1.3,0.2 1.3,0.3 1.3,0.3 1.2,0.5 1.2,0.4 1.2,0.5 1.2,0.6 1.1,0.6 1.2,0.7 1.1,0.7 1,0.8 1,0.8 1,0.8 1,0.9 0.9,1 0.9,0.9 0.8,1 0.8,1.1 0.7,1.1 0.7,1.1 0.6,1.1 0.6,1.2 0.6,1.2 0.4,1.2 0.5,1.2 0.4,1.3 0.3,1.2 0.2,1.3 0.3,1.3 0.1,1.3 0.1,1.3 0,1.3 0,1.3 0,1.3 -0.2,1.3 -0.2,1.3 -0.2,1.3 -0.3,1.3 -0.4,1.2 m -9.2,34.4 -0.4,1.2 -0.4,1.3 -0.6,1.2 -0.5,1.1 -0.6,1.2 -0.7,1.1 -0.7,1.1 -0.8,1.1 -0.8,1 -0.9,1 -0.9,0.9 -0.9,0.9 -1,0.9 -1,0.8 -1,0.8 -1.1,0.8 -1.1,0.6 -1.1,0.7 -1.2,0.6 -1.2,0.5 -1.2,0.5 -1.3,0.4 -1.2,0.4 -1.3,0.3 -1.2,0.3 -1.3,0.2 -1.3,0.1 -1.3,0.1 -1.3,0.1 -1.3,0 -1.4,-0.1 -1.2,-0.1 -1.3,-0.2 -1.3,-0.3 -1.3,-0.3 -1.3,-0.3 -1.2,-0.4 -1.2,-0.5 -1.2,-0.5 -1.2,-0.6 -1.1,-0.6 -1.2,-0.7 -1.1,-0.7 -1,-0.7 -1,-0.9 -1,-0.8 -1,-0.9 -0.9,-0.9 -0.9,-1 -0.8,-1 -0.8,-1.1 -0.7,-1 -0.7,-1.2 -0.6,-1.1 -0.6,-1.2 -0.6,-1.2 -0.4,-1.2 -0.5,-1.2 -0.3,-1.3 -0.4,-1.2 -0.2,-1.3 -0.2,-1.3 -0.2,-1.3 -0.1,-1.3 0,-1.3 0,-1.3 0.1,-1.3 0.1,-1.3 0.2,-1.3 0.2,-1.3 0.3,-1.2 0.4,-1.3 0.4,-1.2 0.4,-1.3 0.6,-1.2 0.5,-1.1 0.6,-1.2 0.7,-1.1 0.7,-1.1 0.8,-1.1 0.8,-1 0.9,-1 0.8,-0.9 1,-0.9 1,-0.9 1,-0.8 1,-0.8 1.1,-0.8 1.1,-0.6 1.1,-0.7 1.2,-0.6 1.2,-0.5 1.2,-0.5 1.2,-0.4 1.3,-0.4 1.3,-0.3 1.2,-0.3 1.3,-0.2 1.3,-0.1 1.3,-0.1 1.3,-0.1 1.3,0 1.3,0.1 1.3,0.1 1.3,0.2 1.3,0.3 1.3,0.3 1.3,0.3 1.2,0.4 1.2,0.5 1.2,0.5 1.2,0.6 1.1,0.6 1.2,0.7 1.1,0.7 1,0.7 1,0.8 1,0.9 1,0.9 0.9,0.9 0.9,1 0.8,1 0.8,1.1 0.7,1 0.7,1.2 0.6,1.1 0.6,1.2 0.6,1.2 0.4,1.2 0.5,1.2 0.3,1.2 0.4,1.3 0.2,1.3 0.2,1.3 0.2,1.3 0.1,1.3 0,1.3 0,1.3 -0.1,1.3 -0.1,1.3 -0.2,1.3 -0.2,1.3 -0.3,1.2 -0.4,1.3 m 9.2,34.4 -0.4,1.2 -0.4,1.2 -0.6,1.2 -0.5,1.2 -0.6,1.2 -0.7,1.1 -0.7,1.1 -0.8,1 -0.8,1.1 -0.8,1 -0.9,0.9 -1,0.9 -1,0.9 -1,0.8 -1,0.8 -1.1,0.7 -1.1,0.7 -1.1,0.7 -1.2,0.5 -1.2,0.6 -1.2,0.5 -1.2,0.4 -1.3,0.4 -1.3,0.3 -1.2,0.3 -1.3,0.2 -1.3,0.1 -1.3,0.1 -1.3,0.1 -1.3,-0.1 -1.3,0 -1.3,-0.2 -1.3,-0.2 -1.3,-0.2 -1.3,-0.3 -1.2,-0.4 -1.3,-0.4 -1.2,-0.4 -1.2,-0.5 -1.2,-0.6 -1.1,-0.6 -1.2,-0.7 -1,-0.7 -1.1,-0.8 -1,-0.8 -1,-0.8 -1,-0.9 -0.9,-1 -0.9,-0.9 -0.8,-1 -0.8,-1.1 -0.7,-1.1 -0.7,-1.1 -0.6,-1.1 -0.6,-1.2 -0.5,-1.2 -0.5,-1.2 -0.5,-1.2 -0.3,-1.3 -0.4,-1.2 -0.2,-1.3 -0.2,-1.3 -0.2,-1.3 -0.1,-1.3 0,-1.3 0,-1.3 0.1,-1.3 0.1,-1.3 0.2,-1.3 0.2,-1.3 0.3,-1.3 0.4,-1.2 0.4,-1.3 0.5,-1.2 0.5,-1.2 0.5,-1.2 0.7,-1.1 0.6,-1.1 0.7,-1.1 0.8,-1.1 0.8,-1 0.9,-1 0.9,-1 0.9,-0.9 1,-0.8 1,-0.9 1,-0.7 1.1,-0.8 1.1,-0.7 1.2,-0.6 1.1,-0.6 1.2,-0.5 1.2,-0.5 1.3,-0.4 1.2,-0.4 1.3,-0.3 1.3,-0.3 1.2,-0.2 1.3,-0.2 1.3,-0.1 1.3,0 1.4,0 1.3,0.1 1.3,0.1 1.2,0.2 1.3,0.2 1.3,0.3 1.3,0.4 1.2,0.4 1.2,0.5 1.2,0.5 1.2,0.5 1.1,0.7 1.2,0.6 1.1,0.8 1,0.7 1,0.8 1,0.9 1,0.9 0.9,0.9 0.9,1 0.8,1 0.8,1 0.7,1.1 0.7,1.1 0.6,1.2 0.6,1.1 0.6,1.2 0.4,1.2 0.5,1.3 0.4,1.2 0.3,1.3 0.2,1.3 0.3,1.3 0.1,1.3 0.1,1.3 0,1.3 0,1.3 0,1.3 -0.2,1.3 -0.2,1.3 -0.2,1.2 -0.3,1.3 -0.4,1.3 m 59.6,-4.5 -0.4,1.3 -0.5,1.2 -0.5,1.2 -0.6,1.2 -0.6,1.1 -0.7,1.1 -0.7,1.1 -0.7,1.1 -0.9,1 -0.8,1 -0.9,1 -0.9,0.9 -1,0.8 -1,0.9 -1.1,0.8 -1.1,0.7 -1.1,0.7 -1.1,0.6 -1.2,0.6 -1.2,0.5 -1.2,0.5 -1.2,0.5 -1.3,0.3 -1.2,0.3 -1.3,0.3 -1.3,0.2 -1.3,0.2 -1.3,0.1 -1.3,0 -1.3,0 -1.3,-0.1 -1.3,-0.1 -1.3,-0.2 -1.3,-0.2 -1.2,-0.3 -1.3,-0.4 -1.2,-0.4 -1.3,-0.5 -1.2,-0.5 -1.1,-0.5 -1.2,-0.7 -1.1,-0.6 -1.1,-0.7 -1.1,-0.8 -1,-0.8 -1,-0.9 -0.9,-0.9 -0.9,-0.9 -0.9,-1 -0.8,-1 -0.8,-1 -0.8,-1.1 -0.6,-1.1 -0.7,-1.2 -0.6,-1.1 -0.5,-1.2 -0.5,-1.2 -0.4,-1.3 -0.4,-1.2 -0.3,-1.3 -0.3,-1.3 -0.2,-1.3 -0.2,-1.2 0,-1.4 -0.1,-1.3 0,-1.3 0.1,-1.3 0.1,-1.3 0.2,-1.3 0.3,-1.2 0.3,-1.3 0.3,-1.3 0.4,-1.2 0.5,-1.2 0.5,-1.2 0.6,-1.2 0.6,-1.2 0.7,-1.1 0.7,-1.1 0.7,-1 0.8,-1.1 0.9,-0.9 0.9,-1 0.9,-0.9 1,-0.9 1,-0.8 1.1,-0.8 1,-0.7 1.2,-0.7 1.1,-0.6 1.2,-0.6 1.1,-0.6 1.3,-0.5 1.2,-0.4 1.2,-0.4 1.3,-0.3 1.3,-0.3 1.3,-0.2 1.3,-0.1 1.3,-0.1 1.3,-0.1 1.3,0.1 1.3,0 1.3,0.2 1.3,0.2 1.3,0.2 1.2,0.3 1.3,0.4 1.2,0.4 1.3,0.4 1.2,0.5 1.1,0.6 1.2,0.6 1.1,0.7 1.1,0.7 1.1,0.8 1,0.8 1,0.8 0.9,0.9 0.9,1 0.9,0.9 0.8,1.1 0.8,1 0.7,1.1 0.7,1.1 0.7,1.1 0.6,1.2 0.5,1.2 0.5,1.2 0.4,1.2 0.4,1.3 0.3,1.2 0.3,1.3 0.2,1.3 0.1,1.3 0.1,1.3 0.1,1.3 0,1.3 -0.1,1.3 -0.1,1.3 -0.2,1.3 -0.3,1.3 -0.3,1.3 -0.3,1.2 m 29.9,-29.9 -0.4,1.2 -0.5,1.3 -0.5,1.2 -0.5,1.1 -0.7,1.2 -0.6,1.1 -0.8,1.1 -0.7,1.1 -0.8,1 -0.9,1 -0.9,0.9 -0.9,0.9 -1,0.9 -1,0.8 -1,0.8 -1.1,0.8 -1.1,0.6 -1.2,0.7 -1.1,0.6 -1.2,0.5 -1.2,0.5 -1.3,0.4 -1.2,0.4 -1.3,0.3 -1.3,0.3 -1.3,0.2 -1.3,0.1 -1.3,0.1 -1.3,0.1 -1.3,0 -1.3,-0.1 -1.3,-0.1 -1.3,-0.2 -1.2,-0.3 -1.3,-0.3 -1.3,-0.3 -1.2,-0.4 -1.2,-0.5 -1.2,-0.5 -1.2,-0.6 -1.2,-0.6 -1.1,-0.7 -1.1,-0.7 -1,-0.7 -1.1,-0.9 -1,-0.8 -0.9,-0.9 -0.9,-0.9 -0.9,-1 -0.8,-1 -0.8,-1.1 -0.7,-1 -0.7,-1.2 -0.7,-1.1 -0.5,-1.2 -0.6,-1.2 -0.5,-1.2 -0.4,-1.2 -0.4,-1.3 -0.3,-1.2 -0.3,-1.3 -0.2,-1.3 -0.1,-1.3 -0.1,-1.3 -0.1,-1.3 0.1,-1.3 0,-1.3 0.2,-1.3 0.2,-1.3 0.2,-1.3 0.3,-1.2 0.4,-1.3 0.4,-1.2 0.4,-1.3 0.5,-1.2 0.6,-1.1 0.6,-1.2 0.7,-1.1 0.7,-1.1 0.8,-1.1 0.8,-1 0.8,-1 0.9,-0.9 1,-0.9 0.9,-0.9 1,-0.8 1.1,-0.8 1.1,-0.8 1.1,-0.6 1.1,-0.7 1.2,-0.6 1.2,-0.5 1.2,-0.5 1.2,-0.4 1.3,-0.4 1.2,-0.3 1.3,-0.3 1.3,-0.2 1.3,-0.1 1.3,-0.1 1.3,-0.1 1.3,0 1.3,0.1 1.3,0.1 1.3,0.2 1.3,0.3 1.3,0.3 1.2,0.3 1.3,0.4 1.2,0.5 1.2,0.5 1.2,0.6 1.1,0.6 1.1,0.7 1.1,0.7 1.1,0.7 1,0.8 1,0.9 1,0.9 0.9,0.9 0.8,1 0.9,1 0.7,1.1 0.8,1 0.7,1.2 0.6,1.1 0.6,1.2 0.5,1.2 0.5,1.2 0.4,1.2 0.4,1.2 0.3,1.3 0.3,1.3 0.2,1.3 0.2,1.3 0.1,1.3 0,1.3 0,1.3 -0.1,1.3 -0.1,1.3 -0.2,1.3 -0.2,1.3 -0.3,1.2 -0.4,1.3 m -29.9,-29.9 -0.4,1.2 -0.5,1.2 -0.5,1.2 -0.6,1.2 -0.6,1.2 -0.7,1.1 -0.7,1.1 -0.7,1 -0.9,1.1 -0.8,0.9 -0.9,1 -0.9,0.9 -1,0.9 -1,0.8 -1.1,0.8 -1.1,0.7 -1.1,0.7 -1.1,0.6 -1.2,0.6 -1.2,0.6 -1.2,0.5 -1.2,0.4 -1.3,0.4 -1.2,0.3 -1.3,0.2 -1.3,0.3 -1.3,0.1 -1.3,0.1 -1.3,0 -1.3,0 -1.3,0 -1.3,-0.2 -1.3,-0.2 -1.3,-0.2 -1.2,-0.3 -1.3,-0.4 -1.2,-0.4 -1.3,-0.4 -1.2,-0.5 -1.1,-0.6 -1.2,-0.6 -1.1,-0.7 -1.1,-0.7 -1.1,-0.8 -1,-0.8 -1,-0.8 -0.9,-0.9 -0.9,-1 -0.9,-0.9 -0.8,-1.1 -0.8,-1 -0.8,-1.1 -0.6,-1.1 -0.7,-1.1 -0.6,-1.2 -0.5,-1.2 -0.5,-1.2 -0.4,-1.2 -0.4,-1.3 -0.3,-1.3 -0.3,-1.2 -0.2,-1.3 -0.2,-1.3 0,-1.3 -0.1,-1.3 0,-1.3 0.1,-1.3 0.1,-1.3 0.2,-1.3 0.3,-1.3 0.3,-1.3 0.3,-1.2 0.4,-1.3 0.5,-1.2 0.5,-1.2 0.6,-1.2 0.6,-1.1 0.7,-1.1 0.7,-1.1 0.7,-1.1 0.8,-1 0.9,-1 0.9,-1 0.9,-0.9 1,-0.8 1,-0.9 1.1,-0.8 1,-0.7 1.2,-0.7 1.1,-0.6 1.2,-0.6 1.1,-0.5 1.3,-0.5 1.2,-0.5 1.2,-0.3 1.3,-0.4 1.3,-0.2 1.3,-0.2 1.3,-0.2 1.3,-0.1 1.3,0 1.3,0 1.3,0.1 1.3,0.1 1.3,0.2 1.3,0.2 1.2,0.3 1.3,0.4 1.2,0.4 1.3,0.5 1.2,0.5 1.1,0.5 1.2,0.7 1.1,0.6 1.1,0.7 1.1,0.8 1,0.8 1,0.9 0.9,0.9 0.9,0.9 0.9,1 0.8,1 0.8,1 0.7,1.1 0.7,1.1 0.7,1.2 0.6,1.1 0.5,1.2 0.5,1.2 0.4,1.3 0.4,1.2 0.3,1.3 0.3,1.3 0.2,1.2 0.1,1.3 0.1,1.3 0.1,1.4 0,1.3 -0.1,1.3 -0.1,1.3 -0.2,1.3 -0.3,1.2 -0.3,1.3 -0.3,1.3 m -30,29.9 -0.4,1.2 -0.4,1.3 -0.5,1.2 -0.6,1.1 -0.6,1.2 -0.7,1.1 -0.7,1.1 -0.8,1.1 -0.8,1 -0.8,1 -0.9,0.9 -1,0.9 -0.9,0.9 -1.1,0.8 -1,0.8 -1.1,0.8 -1.1,0.6 -1.1,0.7 -1.2,0.6 -1.2,0.5 -1.2,0.5 -1.2,0.4 -1.3,0.4 -1.3,0.3 -1.2,0.3 -1.3,0.2 -1.3,0.1 -1.3,0.1 -1.3,0.1 -1.3,0 -1.3,-0.1 -1.3,-0.1 -1.3,-0.2 -1.3,-0.3 -1.3,-0.3 -1.2,-0.3 -1.3,-0.4 -1.2,-0.5 -1.2,-0.5 -1.2,-0.6 -1.1,-0.6 -1.2,-0.7 -1,-0.7 -1.1,-0.7 -1,-0.9 -1,-0.8 -1,-0.9 -0.9,-0.9 -0.9,-1 -0.8,-1 -0.8,-1.1 -0.7,-1 -0.7,-1.2 -0.6,-1.1 -0.6,-1.2 -0.5,-1.2 -0.5,-1.2 -0.5,-1.2 -0.3,-1.3 -0.4,-1.2 -0.2,-1.3 -0.2,-1.3 -0.2,-1.3 -0.1,-1.3 0,-1.3 0,-1.3 0.1,-1.3 0.1,-1.3 0.2,-1.3 0.2,-1.3 0.3,-1.2 0.4,-1.3 0.4,-1.2 0.5,-1.3 0.5,-1.2 0.5,-1.1 0.7,-1.2 0.6,-1.1 0.7,-1.1 0.8,-1.1 0.8,-1 0.9,-1 0.9,-0.9 0.9,-0.9 1,-0.9 1,-0.8 1,-0.8 1.1,-0.8 1.1,-0.6 1.2,-0.7 1.1,-0.6 1.2,-0.5 1.2,-0.5 1.3,-0.4 1.2,-0.4 1.3,-0.3 1.3,-0.3 1.2,-0.2 1.3,-0.1 1.3,-0.1 1.4,-0.1 1.3,0 1.3,0.1 1.3,0.1 1.3,0.2 1.2,0.3 1.3,0.3 1.3,0.3 1.2,0.4 1.2,0.5 1.2,0.5 1.2,0.6 1.2,0.6 1.1,0.7 1.1,0.7 1,0.7 1.1,0.8 0.9,0.9 1,0.9 0.9,0.9 0.9,1 0.8,1 0.8,1.1 0.7,1 0.7,1.2 0.6,1.1 0.6,1.2 0.6,1.2 0.4,1.2 0.5,1.2 0.4,1.2 0.3,1.3 0.2,1.3 0.3,1.3 0.1,1.3 0.1,1.3 0,1.3 0,1.3 0,1.3 -0.2,1.3 -0.2,1.3 -0.2,1.3 -0.3,1.2 -0.4,1.3"
         style="fill:none;stroke:#000000;stroke-width:0.70899999;stroke-linecap:butt;stroke-linejoin:miter;stroke-miterlimit:10;stroke-opacity:1;stroke-dasharray:none"
         id="path3031"
         inkscape:connector-curvature="0" /></g><g
       style="display:inline"
       id="g3041"
       transform="matrix(1.25,0,0,-1.25,256.14075,225.73375)" /><g
       style="display:inline"
       id="g3045"
       transform="matrix(1.25,0,0,-1.25,294.932,225.73375)" /><g
       style="display:inline"
       id="g3053"
       transform="matrix(1.25,0,0,-1.25,333.72338,225.73375)" /><g
       style="display:inline"
       id="g3057"
       transform="matrix(1.25,0,0,-1.25,372.51463,225.73375)" /><g
       style="display:inline"
       id="g3061"
       transform="matrix(1.25,0,0,-1.25,411.306,225.73375)" /><g
       style="display:inline"
       id="g3065"
       transform="matrix(1.25,0,0,-1.25,294.932,225.73375)" /><g
       style="display:inline"
       id="g3069"
       transform="matrix(1.25,0,0,-1.25,294.932,264.52512)" /></g><g
     inkscape:groupmode="layer"
     id="layer5"
     inkscape:label="disks"
     transform="translate(-201.28564,-113.26422)"
     style="display:inline"><path
       sodipodi:type="arc"
       style="color:#000000;fill:none;stroke:#000000;stroke-width:0.36335823;stroke-miterlimit:4;stroke-opacity:1;stroke-dasharray:none;marker:none;visibility:visible;display:inline;overflow:visible;enable-background:accumulate"
       id="path4070"
       sodipodi:cx="280.10461"
       sodipodi:cy="205.50507"
       sodipodi:rx="38.250076"
       sodipodi:ry="38.250076"
       d="m 318.35469,205.50507 a 38.250076,38.250076 0 1 1 -76.50015,0 38.250076,38.250076 0 1 1 76.50015,0 z"
       transform="matrix(0.97515528,0,0,0.97515528,-4.5707199,11.652179)" /><path
       sodipodi:type="arc"
       style="color:#000000;fill:none;stroke:#000000;stroke-width:0.36335823;stroke-miterlimit:4;stroke-opacity:1;stroke-dasharray:none;marker:none;visibility:visible;display:inline;overflow:visible;enable-background:accumulate"
       id="path4070-4"
       sodipodi:cx="280.10461"
       sodipodi:cy="205.50507"
       sodipodi:rx="38.250076"
       sodipodi:ry="38.250076"
       d="m 318.35469,205.50507 a 38.250076,38.250076 0 1 1 -76.50015,0 38.250076,38.250076 0 1 1 76.50015,0 z"
       transform="matrix(0.97515528,0,0,0.97515528,26.925192,-19.951626)" /><path
       sodipodi:type="arc"
       style="color:#000000;fill:none;stroke:#000000;stroke-width:0.36335823;stroke-miterlimit:4;stroke-opacity:1;stroke-dasharray:none;marker:none;visibility:visible;display:inline;overflow:visible;enable-background:accumulate"
       id="path4070-7"
       sodipodi:cx="280.10461"
       sodipodi:cy="205.50507"
       sodipodi:rx="38.250076"
       sodipodi:ry="38.250076"
       d="m 318.35469,205.50507 a 38.250076,38.250076 0 1 1 -76.50015,0 38.250076,38.250076 0 1 1 76.50015,0 z"
       transform="matrix(0.97515528,0,0,0.97515528,69.931425,-31.375156)" /><path
       sodipodi:type="arc"
       style="color:#000000;fill:none;stroke:#000000;stroke-width:0.36335823;stroke-miterlimit:4;stroke-opacity:1;stroke-dasharray:none;marker:none;visibility:visible;display:inline;overflow:visible;enable-background:accumulate"
       id="path4070-76"
       sodipodi:cx="280.10461"
       sodipodi:cy="205.50507"
       sodipodi:rx="38.250076"
       sodipodi:ry="38.250076"
       d="m 318.35469,205.50507 a 38.250076,38.250076 0 1 1 -76.50015,0 38.250076,38.250076 0 1 1 76.50015,0 z"
       transform="matrix(0.97515528,0,0,0.97515528,112.93765,-19.951626)" /><path
       sodipodi:type="arc"
       style="color:#000000;fill:none;stroke:#000000;stroke-width:0.36335823;stroke-miterlimit:4;stroke-opacity:1;stroke-dasharray:none;marker:none;visibility:visible;display:inline;overflow:visible;enable-background:accumulate"
       id="path4070-5"
       sodipodi:cx="280.10461"
       sodipodi:cy="205.50507"
       sodipodi:rx="38.250076"
       sodipodi:ry="38.250076"
       d="m 318.35469,205.50507 a 38.250076,38.250076 0 1 1 -76.50015,0 38.250076,38.250076 0 1 1 76.50015,0 z"
       transform="matrix(0.97515528,0,0,0.97515528,69.931425,17.342842)" /><path
       sodipodi:type="arc"
       style="color:#000000;fill:none;stroke:#000000;stroke-width:0.36335823;stroke-miterlimit:4;stroke-opacity:1;stroke-dasharray:none;marker:none;visibility:visible;display:inline;overflow:visible;enable-background:accumulate"
       id="path4070-6"
       sodipodi:cx="280.10461"
       sodipodi:cy="205.50507"
       sodipodi:rx="38.250076"
       sodipodi:ry="38.250076"
       d="m 318.35469,205.50507 a 38.250076,38.250076 0 1 1 -76.50015,0 38.250076,38.250076 0 1 1 76.50015,0 z"
       transform="matrix(0.97515528,0,0,0.97515528,144.18437,11.631076)" /><path
       sodipodi:type="arc"
       style="color:#000000;fill:none;stroke:#000000;stroke-width:0.36335823;stroke-miterlimit:4;stroke-opacity:1;stroke-dasharray:none;marker:none;visibility:visible;display:inline;overflow:visible;enable-background:accumulate"
       id="path4070-2"
       sodipodi:cx="280.10461"
       sodipodi:cy="205.50507"
       sodipodi:rx="38.250076"
       sodipodi:ry="38.250076"
       d="m 318.35469,205.50507 a 38.250076,38.250076 0 1 1 -76.50015,0 38.250076,38.250076 0 1 1 76.50015,0 z"
       transform="matrix(0.97515528,0,0,0.97515528,155.94389,54.63731)" /><path
       sodipodi:type="arc"
       style="color:#000000;fill:none;stroke:#000000;stroke-width:0.36335823;stroke-miterlimit:4;stroke-opacity:1;stroke-dasharray:none;marker:none;visibility:visible;display:inline;overflow:visible;enable-background:accumulate"
       id="path4070-0"
       sodipodi:cx="280.10461"
       sodipodi:cy="205.50507"
       sodipodi:rx="38.250076"
       sodipodi:ry="38.250076"
       d="m 318.35469,205.50507 a 38.250076,38.250076 0 1 1 -76.50015,0 38.250076,38.250076 0 1 1 76.50015,0 z"
       transform="matrix(0.97515528,0,0,0.97515528,144.52035,97.643543)" /><path
       sodipodi:type="arc"
       style="color:#000000;fill:none;stroke:#000000;stroke-width:0.36335823;stroke-miterlimit:4;stroke-opacity:1;stroke-dasharray:none;marker:none;visibility:visible;display:inline;overflow:visible;enable-background:accumulate"
       id="path4070-64"
       sodipodi:cx="280.10461"
       sodipodi:cy="205.50507"
       sodipodi:rx="38.250076"
       sodipodi:ry="38.250076"
       d="m 318.35469,205.50507 a 38.250076,38.250076 0 1 1 -76.50015,0 38.250076,38.250076 0 1 1 76.50015,0 z"
       transform="matrix(0.97515528,0,0,0.97515528,107.22589,54.63731)" /><path
       sodipodi:type="arc"
       style="color:#000000;fill:none;stroke:#000000;stroke-width:0.36335823;stroke-miterlimit:4;stroke-opacity:1;stroke-dasharray:none;marker:none;visibility:visible;display:inline;overflow:visible;enable-background:accumulate"
       id="path4070-9"
       sodipodi:cx="280.10461"
       sodipodi:cy="205.50507"
       sodipodi:rx="38.250076"
       sodipodi:ry="38.250076"
       d="m 318.35469,205.50507 a 38.250076,38.250076 0 1 1 -76.50015,0 38.250076,38.250076 0 1 1 76.50015,0 z"
       transform="matrix(0.97515528,0,0,0.97515528,69.931424,91.931778)" /><path
       sodipodi:type="arc"
       style="color:#000000;fill:none;stroke:#000000;stroke-width:0.36335823;stroke-miterlimit:4;stroke-opacity:1;stroke-dasharray:none;marker:none;visibility:visible;display:inline;overflow:visible;enable-background:accumulate"
       id="path4070-90"
       sodipodi:cx="280.10461"
       sodipodi:cy="205.50507"
       sodipodi:rx="38.250076"
       sodipodi:ry="38.250076"
       d="m 318.35469,205.50507 a 38.250076,38.250076 0 1 1 -76.50015,0 38.250076,38.250076 0 1 1 76.50015,0 z"
       transform="matrix(0.97515528,0,0,0.97515528,32.636957,54.63731)" /><path
       sodipodi:type="arc"
       style="color:#000000;fill:none;stroke:#000000;stroke-width:0.36335823;stroke-miterlimit:4;stroke-opacity:1;stroke-dasharray:none;marker:none;visibility:visible;display:inline;overflow:visible;enable-background:accumulate"
       id="path4070-66"
       sodipodi:cx="280.10461"
       sodipodi:cy="205.50507"
       sodipodi:rx="38.250076"
       sodipodi:ry="38.250076"
       d="m 318.35469,205.50507 a 38.250076,38.250076 0 1 1 -76.50015,0 38.250076,38.250076 0 1 1 76.50015,0 z"
       transform="matrix(0.97515528,0,0,0.97515528,-16.081042,54.637309)" /><path
       sodipodi:type="arc"
       style="color:#000000;fill:none;stroke:#000000;stroke-width:0.36335823;stroke-miterlimit:4;stroke-opacity:1;stroke-dasharray:none;marker:none;visibility:visible;display:inline;overflow:visible;enable-background:accumulate"
       id="path4070-63"
       sodipodi:cx="280.10461"
       sodipodi:cy="205.50507"
       sodipodi:rx="38.250076"
       sodipodi:ry="38.250076"
       d="m 318.35469,205.50507 a 38.250076,38.250076 0 1 1 -76.50015,0 38.250076,38.250076 0 1 1 76.50015,0 z"
       transform="matrix(0.97515528,0,0,0.97515528,-4.3215254,97.643543)" /><path
       sodipodi:type="arc"
       style="color:#000000;fill:none;stroke:#000000;stroke-width:0.36335823;stroke-miterlimit:4;stroke-opacity:1;stroke-dasharray:none;marker:none;visibility:visible;display:inline;overflow:visible;enable-background:accumulate"
       id="path4070-52"
       sodipodi:cx="280.10461"
       sodipodi:cy="205.50507"
       sodipodi:rx="38.250076"
       sodipodi:ry="38.250076"
       d="m 318.35469,205.50507 a 38.250076,38.250076 0 1 1 -76.50015,0 38.250076,38.250076 0 1 1 76.50015,0 z"
       transform="matrix(0.97515528,0,0,0.97515528,26.925191,129.22624)" /><path
       sodipodi:type="arc"
       style="color:#000000;fill:none;stroke:#000000;stroke-width:0.36335823;stroke-miterlimit:4;stroke-opacity:1;stroke-dasharray:none;marker:none;visibility:visible;display:inline;overflow:visible;enable-background:accumulate"
       id="path4070-53"
       sodipodi:cx="280.10461"
       sodipodi:cy="205.50507"
       sodipodi:rx="38.250076"
       sodipodi:ry="38.250076"
       d="m 318.35469,205.50507 a 38.250076,38.250076 0 1 1 -76.50015,0 38.250076,38.250076 0 1 1 76.50015,0 z"
       transform="matrix(0.97515528,0,0,0.97515528,69.595439,140.31379)" /><path
       sodipodi:type="arc"
       style="color:#000000;fill:none;stroke:#000000;stroke-width:0.36335823;stroke-miterlimit:4;stroke-opacity:1;stroke-dasharray:none;marker:none;visibility:visible;display:inline;overflow:visible;enable-background:accumulate"
       id="path4070-8"
       sodipodi:cx="280.10461"
       sodipodi:cy="205.50507"
       sodipodi:rx="38.250076"
       sodipodi:ry="38.250076"
       d="m 318.35469,205.50507 a 38.250076,38.250076 0 1 1 -76.50015,0 38.250076,38.250076 0 1 1 76.50015,0 z"
       transform="matrix(0.97515528,0,0,0.97515528,112.93766,128.89025)" /></g><g
     inkscape:groupmode="layer"
     id="layer2"
     inkscape:label="voronoi"
     style="display:none"
     transform="translate(-201.28564,-113.26422)"><g
       id="g3037"
       transform="matrix(1.25,0,0,-1.25,342.95542,255.059)"><path
         d="M 0,0 30,30 M 13.3,49.4 30,30 M 0,0 -29.9,30 m 0,0 16.7,19.4 m 0,-98.7 -16.7,19.4 m 0,0 -19.4,16.7 m 98.7,0 L 30,-29.9 m 0,0 -16.7,-19.4 m -62.6,36.1 0,26.5 m -38,10.2 38,-10.2 m 62.6,-62.6 -26.5,0 m 62.6,62.6 0,-26.5 m 38,36.7 -38,-10.2 m -62.6,36.1 26.5,0 m -36.7,38 23.4,6.3 m 0,0 23.5,-6.3 m 0,0 23.4,-6.2 m 0,0 L 64,64 m -127.9,0 17.1,17.2 m 0,0 23.4,6.2 M -63.9,64 -81.1,46.9 m 0,0 -6.2,-23.4 M -93.6,0 -87.3,-23.4 M 87.4,23.5 81.2,46.9 m 0,0 L 64,64 m -151.3,-87.4 6.2,-23.4 m 0,0 17.2,-17.1 m 0,0 17.1,-17.2 m 0,0 23.4,-6.2 m 0,0 23.4,-6.3 m 0,0 23.5,6.3 m 0,0 23.4,6.2 m 0,0 17.1,17.2 m 0,0 17.2,17.1 m 0,0 6.2,23.4 m 0,0 6.3,23.4"
         style="fill:none;stroke:#808080;stroke-width:0.70899999;stroke-linecap:round;stroke-linejoin:round;stroke-miterlimit:10;stroke-opacity:1;stroke-dasharray:none"
         id="path3039"
         inkscape:connector-curvature="0"
         sodipodi:nodetypes="cccccccccccccccccccccccccccccccccccccccccccccccccccccccccccccccccccccccc" /></g><g
       style="display:inline"
       id="g3033"
       transform="matrix(1.25,0,0,-1.25,380.45542,217.559)"><path
         d="M 0,0 19.4,-16.7 M 34,34 0,0 M -79.3,-16.7 -59.9,0 m -34,34 34,-34 M -30,-30 -59.9,-59.9 m -34,-34 34,34 M -30,-30 0,-59.9 m 34,-34 -34,34 m -117.3,6.5 38,10.2 m 25.9,-74.1 10.2,38 m 36.7,-38 -10.2,38 m 74.1,25.9 -38,10.2 M -6.5,57.4 -16.7,19.4 m -36.7,38 10.2,-38 m -74.1,-25.9 -6.3,-23.5 m 187.3,0 -6.3,23.5"
         style="fill:none;stroke:#808080;stroke-width:0.50999999;stroke-linecap:round;stroke-linejoin:round;stroke-miterlimit:10;stroke-opacity:1;stroke-dasharray:none"
         id="path3035"
         inkscape:connector-curvature="0" /></g></g><g
     inkscape:groupmode="layer"
     id="layer4"
     inkscape:label="tiles"
     style="opacity:0.5;display:inline"
     transform="translate(-201.28564,-113.26422)"><path
       style="fill:#7eff00;fill-opacity:1;stroke:none"
       d="m 281.3076,271.47377 24.22115,20.90848 37.55158,-37.32318 -37.44818,-37.55174 -24.27881,20.84148 z"
       id="path3168"
       inkscape:connector-curvature="0" /><path
       style="color:#000000;fill:#00fcff;fill-opacity:1;fill-rule:nonzero;stroke:none;stroke-width:1px;marker:none;visibility:visible;display:inline;overflow:visible;enable-background:accumulate"
       d="m 305.63215,217.50733 37.44818,37.55174 37.42674,-37.44835 -20.84148,-24.2788 -33.12497,-0.0457 z"
       id="path3181"
       inkscape:connector-curvature="0" /><path
       style="color:#000000;fill:#ff0000;fill-opacity:1;fill-rule:nonzero;stroke:none;stroke-width:1px;marker:none;visibility:visible;display:inline;overflow:visible;enable-background:accumulate"
       d="m 343.08033,255.05907 -37.55158,37.32318 20.84148,24.27881 33.12496,0.0457 20.90848,-24.22115 z"
       id="path3189"
       inkscape:connector-curvature="0" /><path
       style="color:#000000;fill:#8400ff;fill-opacity:1;fill-rule:nonzero;stroke:none;stroke-width:1px;marker:none;visibility:visible;display:inline;overflow:visible;enable-background:accumulate"
       d="m 380.40367,292.48565 24.27881,-20.84148 0.0457,-33.12497 -24.22115,-20.90848 -37.42674,37.44835 z"
       id="path3197"
       inkscape:connector-curvature="0" /><path
       style="color:#000000;fill:#1eff00;fill-opacity:1;fill-rule:nonzero;stroke:none;stroke-width:1px;marker:none;visibility:visible;display:inline;overflow:visible;enable-background:accumulate"
       d="m 281.3076,271.47377 0.0457,-33.12496 -47.48235,-12.81558 -7.91555,29.36409 7.83459,29.26084 z"
       id="path3205"
       inkscape:connector-curvature="0" /><path
       style="color:#000000;fill:#00ff42;fill-opacity:1;fill-rule:nonzero;stroke:none;stroke-width:1px;marker:none;visibility:visible;display:inline;overflow:visible;enable-background:accumulate"
       d="m 263.19088,174.94866 42.44127,42.55867 -24.27881,20.84148 -47.48235,-12.81558 7.79039,-29.23928 z"
       id="path3213"
       inkscape:connector-curvature="0" /><path
       style="color:#000000;fill:#00ffa2;fill-opacity:1;fill-rule:nonzero;stroke:none;stroke-width:1px;marker:none;visibility:visible;display:inline;overflow:visible;enable-background:accumulate"
       d="m 263.19088,174.94866 42.44127,42.55867 20.90847,-24.22115 -12.68439,-47.51757 -29.26067,7.7096 z"
       id="path3221"
       inkscape:connector-curvature="0" /><path
       style="color:#000000;fill:#009cff;fill-opacity:1;fill-rule:nonzero;stroke:none;stroke-width:1px;marker:none;visibility:visible;display:inline;overflow:visible;enable-background:accumulate"
       d="m 326.54062,193.28618 33.12497,0.0457 12.81558,-47.48235 -29.23909,-7.91538 -29.38585,7.83442 z"
       id="path3229"
       inkscape:connector-curvature="0" /><path
       style="color:#000000;fill:#003cff;fill-opacity:1;fill-rule:nonzero;stroke:none;stroke-width:1px;marker:none;visibility:visible;display:inline;overflow:visible;enable-background:accumulate"
       d="m 359.66559,193.33192 20.84148,24.2788 42.55866,-42.44126 -21.34529,-21.5295 -29.23927,-7.79039 z"
       id="path3237"
       inkscape:connector-curvature="0" /><path
       style="color:#000000;fill:#2400ff;fill-opacity:1;fill-rule:nonzero;stroke:none;stroke-width:1px;marker:none;visibility:visible;display:inline;overflow:visible;enable-background:accumulate"
       d="m 380.50707,217.61072 24.22115,20.90848 47.51757,-12.68439 -7.7096,-29.26067 -21.47046,-21.40468 z"
       id="path3245"
       inkscape:connector-curvature="0" /><path
       style="color:#000000;fill:#e400ff;fill-opacity:1;fill-rule:nonzero;stroke:none;stroke-width:1px;marker:none;visibility:visible;display:inline;overflow:visible;enable-background:accumulate"
       d="m 404.68248,271.64417 47.48235,12.81558 7.91538,-29.23909 -7.83442,-29.38585 -47.51757,12.68439 z"
       id="path3253"
       inkscape:connector-curvature="0" /><path
       style="color:#000000;fill:#ff00ba;fill-opacity:1;fill-rule:nonzero;stroke:none;stroke-width:1px;marker:none;visibility:visible;display:inline;overflow:visible;enable-background:accumulate"
       d="m 380.40367,292.48565 42.44127,42.55866 21.5295,-21.34529 7.79039,-29.23927 -47.48235,-12.81558 z"
       id="path3261"
       inkscape:connector-curvature="0" /><path
       style="color:#000000;fill:#ff005a;fill-opacity:1;fill-rule:nonzero;stroke:none;stroke-width:1px;marker:none;visibility:visible;display:inline;overflow:visible;enable-background:accumulate"
       d="m 372.17958,364.22437 29.26068,-7.7096 21.40468,-21.47046 -42.44127,-42.55866 -20.90848,24.22115 z"
       id="path3269"
       inkscape:connector-curvature="0" /><path
       style="color:#000000;fill:#ff6000;fill-opacity:1;fill-rule:nonzero;stroke:none;stroke-width:1px;marker:none;visibility:visible;display:inline;overflow:visible;enable-background:accumulate"
       d="m 313.55465,364.14341 29.36409,7.91555 29.26084,-7.83459 -12.68439,-47.51757 -33.12496,-0.0457 z"
       id="path3277"
       inkscape:connector-curvature="0" /><path
       style="color:#000000;fill:#ffc000;fill-opacity:1;fill-rule:nonzero;stroke:none;stroke-width:1px;marker:none;visibility:visible;display:inline;overflow:visible;enable-background:accumulate"
       d="m 262.97008,334.82352 21.34529,21.5295 29.23928,7.79039 12.81558,-47.48235 -20.84148,-24.27881 z"
       id="path3285"
       inkscape:connector-curvature="0" /><path
       style="color:#000000;fill:#deff00;fill-opacity:1;fill-rule:nonzero;stroke:none;stroke-width:1px;marker:none;visibility:visible;display:inline;overflow:visible;enable-background:accumulate"
       d="m 241.49963,313.41884 21.47045,21.40468 42.55867,-42.44127 -24.22115,-20.90848 -47.51757,12.68439 z"
       id="path3293"
       inkscape:connector-curvature="0" /></g><g
     inkscape:groupmode="layer"
     id="layer3"
     inkscape:label="screen"
     style="display:none"
     transform="translate(-201.28564,-113.26422)"><path
       d="m 246.09617,235.5415 38.79125,0"
       style="fill:none;stroke:#808080;stroke-width:0.63749999;stroke-linecap:round;stroke-linejoin:round;stroke-miterlimit:10;stroke-opacity:1;stroke-dasharray:54, 4.5, 4.5, 4.5;stroke-dashoffset:41.35375;display:inline"
       id="path3043"
       inkscape:connector-curvature="0" /><path
       d="m 284.88742,235.5415 0,-38.79125"
       style="fill:none;stroke:#808080;stroke-width:0.63749999;stroke-linecap:round;stroke-linejoin:round;stroke-miterlimit:10;stroke-opacity:1;stroke-dasharray:54, 4.5, 4.5, 4.5;stroke-dashoffset:41.35375;display:inline"
       id="path3047"
       inkscape:connector-curvature="0" /><path
       d="m 284.88742,235.5415 38.79125,0"
       style="fill:none;stroke:#808080;stroke-width:0.63749999;stroke-linecap:round;stroke-linejoin:round;stroke-miterlimit:10;stroke-opacity:1;stroke-dasharray:54, 4.5, 4.5, 4.5;stroke-dashoffset:41.35375;display:inline"
       id="path3051"
       inkscape:connector-curvature="0" /><path
       d="m 323.6788,235.5415 38.79125,0"
       style="fill:none;stroke:#808080;stroke-width:0.63749999;stroke-linecap:round;stroke-linejoin:round;stroke-miterlimit:10;stroke-opacity:1;stroke-dasharray:54, 4.5, 4.5, 4.5;stroke-dashoffset:41.35375;display:inline"
       id="path3055"
       inkscape:connector-curvature="0" /><path
       d="m 362.47005,235.5415 38.79125,0"
       style="fill:none;stroke:#808080;stroke-width:0.63749999;stroke-linecap:round;stroke-linejoin:round;stroke-miterlimit:10;stroke-opacity:1;stroke-dasharray:54, 4.5, 4.5, 4.5;stroke-dashoffset:41.35375;display:inline"
       id="path3059"
       inkscape:connector-curvature="0" /><path
       d="m 401.26142,235.5415 38.79125,0"
       style="fill:none;stroke:#808080;stroke-width:0.63749999;stroke-linecap:round;stroke-linejoin:round;stroke-miterlimit:10;stroke-opacity:1;stroke-dasharray:54, 4.5, 4.5, 4.5;stroke-dashoffset:41.35375;display:inline"
       id="path3063"
       inkscape:connector-curvature="0" /><path
       d="m 284.88742,235.5415 0,38.79125"
       style="fill:none;stroke:#808080;stroke-width:0.63749999;stroke-linecap:round;stroke-linejoin:round;stroke-miterlimit:10;stroke-opacity:1;stroke-dasharray:54, 4.5, 4.5, 4.5;stroke-dashoffset:41.35375;display:inline"
       id="path3067"
       inkscape:connector-curvature="0" /><path
       d="m 284.88742,274.33287 0,38.79125"
       style="fill:none;stroke:#808080;stroke-width:0.63749999;stroke-linecap:round;stroke-linejoin:round;stroke-miterlimit:10;stroke-opacity:1;stroke-dasharray:54, 4.5, 4.5, 4.5;stroke-dashoffset:41.35375;display:inline"
       id="path3071"
       inkscape:connector-curvature="0" /><path
       style="fill:none;stroke:#000000;stroke-width:1px;stroke-linecap:butt;stroke-linejoin:miter;stroke-opacity:1"
       d="m 439.95542,196.809 -193.875,0 0,116.375 193.875,0 z"
       id="path3165"
       inkscape:connector-curvature="0" /></g></svg>